<?xml version="1.0" encoding="UTF-8" standalone="no"?>
<!-- Created with Inkscape (http://www.inkscape.org/) -->

<svg
   xmlns:dc="http://purl.org/dc/elements/1.1/"
   xmlns:cc="http://creativecommons.org/ns#"
   xmlns:rdf="http://www.w3.org/1999/02/22-rdf-syntax-ns#"
   xmlns:svg="http://www.w3.org/2000/svg"
   xmlns="http://www.w3.org/2000/svg"
   xmlns:sodipodi="http://sodipodi.sourceforge.net/DTD/sodipodi-0.dtd"
   xmlns:inkscape="http://www.inkscape.org/namespaces/inkscape"
   width="10.583386mm"
   height="11.805761mm"
   viewBox="0 0 10.583386 11.805761"
   version="1.1"
   id="svg1578"
   sodipodi:docname="clipboard-question.svg"
   inkscape:version="0.92.5 (2060ec1f9f, 2020-04-08)">
  <defs
     id="defs1572" />
  <sodipodi:namedview
     id="base"
     pagecolor="#ffffff"
     bordercolor="#666666"
     borderopacity="1.0"
     inkscape:pageopacity="0.0"
     inkscape:pageshadow="2"
     inkscape:zoom="5.6"
     inkscape:cx="13.229934"
     inkscape:cy="8.1357741"
     inkscape:document-units="mm"
     inkscape:current-layer="layer1"
     showgrid="false"
     inkscape:window-width="960"
     inkscape:window-height="1023"
     inkscape:window-x="0"
     inkscape:window-y="28"
     inkscape:window-maximized="0" />
  <metadata
     id="metadata1575">
    <rdf:RDF>
      <cc:Work
         rdf:about="">
        <dc:format>image/svg+xml</dc:format>
        <dc:type
           rdf:resource="http://purl.org/dc/dcmitype/StillImage" />
        <dc:title></dc:title>
      </cc:Work>
    </rdf:RDF>
  </metadata>
  <g
     inkscape:label="Layer 1"
     inkscape:groupmode="layer"
     id="layer1"
     transform="translate(-6.0475924,-6.8590237)">
    <g
       transform="matrix(0.26458333,0,0,0.26458333,-79.174251,4.4778003)"
       id="g1531">
      <g
         style="stroke-linecap:round"
         id="g48"
         transform="translate(323.09841,10)">
        <path
           style="fill:none;stroke:#000000;stroke-width:2"
           inkscape:connector-curvature="0"
           id="path46"
           d="m 9.5,0 m 0,0 c 7.24,0 14.48,0 19,0 m -19,0 c 4.91,0 9.83,0 19,0 m 0,0 C 34.83,0 38,3.17 38,9.5 M 28.5,0 C 34.83,0 38,3.17 38,9.5 m 0,0 c 0,6.65 0,13.3 0,23.62 M 38,9.5 c 0,6.17 0,12.33 0,23.62 m 0,0 c 0,6.33 -3.17,9.5 -9.5,9.5 m 9.5,-9.5 c 0,6.33 -3.17,9.5 -9.5,9.5 m 0,0 c -5.66,0 -11.31,0 -19,0 m 19,0 c -4.49,0 -8.97,0 -19,0 m 0,0 C 3.17,42.62 0,39.45 0,33.12 m 9.5,9.5 C 3.17,42.62 0,39.45 0,33.12 m 0,0 C 0,23.95 0,14.78 0,9.5 M 0,33.12 C 0,26.53 0,19.94 0,9.5 m 0,0 C 0,3.17 3.17,0 9.5,0 M 0,9.5 C 0,3.17 3.17,0 9.5,0" />
      </g>
      <g
         style="stroke-linecap:round"
         id="g52"
         transform="translate(334.24161,10.089664)">
        <path
           style="fill:none;stroke:#000000;stroke-width:2"
           inkscape:connector-curvature="0"
           id="path50"
           d="m 1.41,0 m 0,0 C 4.62,0 7.83,0 12.34,0 M 1.41,0 c 3.35,0 6.7,0 10.93,0 m 0,0 c 0.94,0 1.42,0.47 1.42,1.41 M 12.34,0 c 0.94,0 1.42,0.47 1.42,1.41 m 0,0 c 0,0.79 0,1.58 0,2.83 m 0,-2.83 c 0,0.9 0,1.8 0,2.83 m 0,0 c 0,0.94 -0.48,1.41 -1.42,1.41 m 1.42,-1.41 c 0,0.94 -0.48,1.41 -1.42,1.41 m 0,0 c -2.92,0 -5.83,0 -10.93,0 m 10.93,0 c -2.94,0 -5.88,0 -10.93,0 m 0,0 C 0.47,5.65 0,5.18 0,4.24 M 1.41,5.65 C 0.47,5.65 0,5.18 0,4.24 m 0,0 C 0,3.38 0,2.52 0,1.41 M 0,4.24 C 0,3.23 0,2.21 0,1.41 m 0,0 C 0,0.47 0.47,0 1.41,0 M 0,1.41 C 0,0.47 0.47,0 1.41,0" />
      </g>
      <g
         id="g56"
         transform="translate(328.09841,21.3102)">
        <g
           id="text54"
           style="font-size:16px;font-family:'Virgil 3 YOFF';direction:ltr;text-anchor:middle;white-space:pre;fill:#000000"
           aria-label="?">
          <path
             inkscape:connector-curvature="0"
             id="path1216"
             style="font-size:16px;font-family:'Virgil 3 YOFF';direction:ltr;text-anchor:middle;white-space:pre;fill:#000000"
             d="m 12.096003,9.488 c 0,0.656 0.944,1.056 1.008,1.104 0.24,0.048 0.624,-0.032 0.816,-0.096 0.064,-0.064 0.368,-0.528 0.304,-0.608 0,-0.176 -0.112,-0.32 -0.112,-0.512 0.176,-0.656 1.056,-1.328 1.728,-1.808 0.08,-0.08 1.616,-1.44 1.616,-1.728 0.224,-0.592 0.08,-1.2 -0.4,-1.616 -0.896,-0.896 -2.016,-1.136 -3.152,-1.136 -0.848,0 -1.712,0.128 -2.512,0.224 -1.184,0 -0.928,0.784 -0.928,0.816 0,0.56 0.24,0.64 0.528,0.704 h 0.704 c 0.208,0 1.312,-0.208 1.312,-0.208 h 1.312 c 0.16,0 0.864,0.16 1.024,0.208 0.256,0.256 0.368,0.48 0.304,0.8 -0.128,0.176 -0.848,0.896 -1.024,1.024 -0.016,0.016 -0.096,0.08 -0.192,0.144 l -0.72,0.416 c -0.096,0.064 -0.16,0.112 -0.192,0.144 -0.736,0.544 -1.408,1.104 -1.424,2.128 z m 1.52,2.016 c -0.48,0.208 -0.864,0.784 -0.816,1.232 v 0.192 c 0.208,0.512 0.368,1.024 0.896,1.024 0.544,0.208 0.976,-0.672 1.04,-1.136 0.176,-0.656 -0.176,-1.152 -0.816,-1.312 z" />
        </g>
      </g>
    </g>
  </g>
</svg>
