<?xml version="1.0" encoding="UTF-8" standalone="no"?>
<!-- Created with Inkscape (http://www.inkscape.org/) -->

<svg
   xmlns:dc="http://purl.org/dc/elements/1.1/"
   xmlns:cc="http://creativecommons.org/ns#"
   xmlns:rdf="http://www.w3.org/1999/02/22-rdf-syntax-ns#"
   xmlns:svg="http://www.w3.org/2000/svg"
   xmlns="http://www.w3.org/2000/svg"
   xmlns:sodipodi="http://sodipodi.sourceforge.net/DTD/sodipodi-0.dtd"
   xmlns:inkscape="http://www.inkscape.org/namespaces/inkscape"
   width="10.583386mm"
   height="11.805761mm"
   viewBox="0 0 10.583386 11.805761"
   version="1.1"
   id="svg1578"
   sodipodi:docname="clipboard-cycle.svg"
   inkscape:version="0.92.5 (2060ec1f9f, 2020-04-08)">
  <defs
     id="defs1572" />
  <sodipodi:namedview
     id="base"
     pagecolor="#ffffff"
     bordercolor="#666666"
     borderopacity="1.0"
     inkscape:pageopacity="0.0"
     inkscape:pageshadow="2"
     inkscape:zoom="5.6"
     inkscape:cx="13.229934"
     inkscape:cy="8.1357741"
     inkscape:document-units="mm"
     inkscape:current-layer="layer1"
     showgrid="false"
     inkscape:window-width="960"
     inkscape:window-height="1023"
     inkscape:window-x="0"
     inkscape:window-y="28"
     inkscape:window-maximized="0" />
  <metadata
     id="metadata1575">
    <rdf:RDF>
      <cc:Work
         rdf:about="">
        <dc:format>image/svg+xml</dc:format>
        <dc:type
           rdf:resource="http://purl.org/dc/dcmitype/StillImage" />
        <dc:title></dc:title>
      </cc:Work>
    </rdf:RDF>
  </metadata>
  <g
     inkscape:label="Layer 1"
     inkscape:groupmode="layer"
     id="layer1"
     transform="translate(-6.0475924,-6.8590237)">
    <g
       transform="matrix(0.26458333,0,0,0.26458333,-66.013024,4.4778004)"
       id="g1551">
      <g
         style="stroke-linecap:round"
         id="g12"
         transform="translate(273.38519,10)">
        <path
           style="fill:none;stroke:#000000;stroke-width:2"
           inkscape:connector-curvature="0"
           id="path10"
           d="m 9.49,0 m 0,0 c 5.19,0 10.38,0 18.99,0 M 9.49,0 c 4.62,0 9.24,0 18.99,0 m 0,0 c 6.33,0 9.49,3.16 9.49,9.49 M 28.48,0 c 6.33,0 9.49,3.16 9.49,9.49 m 0,0 c 0,4.93 0,9.86 0,23.64 m 0,-23.64 c 0,9.06 0,18.11 0,23.64 m 0,0 c 0,6.33 -3.16,9.49 -9.49,9.49 m 9.49,-9.49 c 0,6.33 -3.16,9.49 -9.49,9.49 m 0,0 c -6.41,0 -12.83,0 -18.99,0 m 18.99,0 c -3.84,0 -7.68,0 -18.99,0 m 0,0 C 3.16,42.62 0,39.46 0,33.13 m 9.49,9.49 C 3.16,42.62 0,39.46 0,33.13 m 0,0 C 0,27.86 0,22.59 0,9.49 M 0,33.13 C 0,26.3 0,19.48 0,9.49 m 0,0 C 0,3.16 3.16,0 9.49,0 M 0,9.49 C 0,3.16 3.16,0 9.49,0" />
      </g>
      <g
         style="stroke-linecap:round"
         id="g16"
         transform="translate(284.52839,10.089664)">
        <path
           style="fill:none;stroke:#000000;stroke-width:2"
           inkscape:connector-curvature="0"
           id="path14"
           d="m 1.41,0 m 0,0 C 4.08,0 6.74,0 12.34,0 M 1.41,0 c 2.21,0 4.41,0 10.93,0 m 0,0 c 0.94,0 1.42,0.47 1.42,1.41 M 12.34,0 c 0.94,0 1.42,0.47 1.42,1.41 m 0,0 c 0,1.07 0,2.14 0,2.83 m 0,-2.83 c 0,0.86 0,1.72 0,2.83 m 0,0 c 0,0.94 -0.48,1.41 -1.42,1.41 m 1.42,-1.41 c 0,0.94 -0.48,1.41 -1.42,1.41 m 0,0 c -3.06,0 -6.13,0 -10.93,0 m 10.93,0 c -2.78,0 -5.56,0 -10.93,0 m 0,0 C 0.47,5.65 0,5.18 0,4.24 M 1.41,5.65 C 0.47,5.65 0,5.18 0,4.24 m 0,0 C 0,3.42 0,2.59 0,1.41 M 0,4.24 C 0,3.23 0,2.22 0,1.41 m 0,0 C 0,0.47 0.47,0 1.41,0 M 0,1.41 C 0,0.47 0.47,0 1.41,0" />
      </g>
      <g
         style="stroke-linecap:round"
         id="g30">
        <g
           id="g20"
           transform="rotate(24.079985,91.421693,709.74467)">
          <path
             style="fill:none;stroke:#000000;stroke-width:2"
             inkscape:connector-curvature="0"
             id="path18"
             d="M 0,0 C 1.19,0.72 6.9,1.92 7.14,4.32 7.37,6.71 2.36,12.7 1.41,14.37 M 0,0 C 1.19,0.72 6.9,1.92 7.14,4.32 7.37,6.71 2.36,12.7 1.41,14.37" />
        </g>
        <g
           id="g24"
           transform="rotate(24.079985,91.421693,709.74467)">
          <path
             style="fill:none;stroke:#000000;stroke-width:2"
             inkscape:connector-curvature="0"
             id="path22"
             d="M 2.88,8.78 C 2.43,10.46 1.99,12.15 1.41,14.37 M 2.88,8.78 c -0.43,1.63 -0.86,3.26 -1.47,5.59" />
        </g>
        <g
           id="g28"
           transform="rotate(24.079985,91.421693,709.74467)">
          <path
             style="fill:none;stroke:#000000;stroke-width:2"
             inkscape:connector-curvature="0"
             id="path26"
             d="M 6.13,11.03 C 4.71,12.04 3.29,13.04 1.41,14.37 M 6.13,11.03 C 4.75,12 3.38,12.98 1.41,14.37" />
        </g>
      </g>
      <g
         style="stroke-linecap:round"
         id="g44">
        <g
           id="g34"
           transform="rotate(-158.19207,147.51216,-8.5860521)">
          <path
             style="fill:none;stroke:#000000;stroke-width:2"
             inkscape:connector-curvature="0"
             id="path32"
             d="M 0,0 C 1.3,0.89 7.55,2.96 7.79,5.36 8.02,7.75 2.47,12.87 1.41,14.37 M 0,0 c 1.3,0.89 7.55,2.96 7.79,5.36 0.23,2.39 -5.32,7.51 -6.38,9.01" />
        </g>
        <g
           id="g38"
           transform="rotate(-158.19207,147.51216,-8.5860521)">
          <path
             style="fill:none;stroke:#000000;stroke-width:2"
             inkscape:connector-curvature="0"
             id="path36"
             d="m 3.41,9.23 c -0.67,1.72 -1.34,3.45 -2,5.14 m 2,-5.14 c -0.56,1.43 -1.12,2.87 -2,5.14" />
        </g>
        <g
           id="g42"
           transform="rotate(-158.19207,147.51216,-8.5860521)">
          <path
             style="fill:none;stroke:#000000;stroke-width:2"
             inkscape:connector-curvature="0"
             id="path40"
             d="M 6.25,11.72 C 4.62,12.61 3,13.5 1.41,14.37 M 6.25,11.72 C 4.9,12.46 3.55,13.2 1.41,14.37" />
        </g>
      </g>
    </g>
  </g>
</svg>
