<?xml version="1.0" encoding="UTF-8" standalone="no"?>
<!-- Created with Inkscape (http://www.inkscape.org/) -->

<svg
   xmlns:dc="http://purl.org/dc/elements/1.1/"
   xmlns:cc="http://creativecommons.org/ns#"
   xmlns:rdf="http://www.w3.org/1999/02/22-rdf-syntax-ns#"
   xmlns:svg="http://www.w3.org/2000/svg"
   xmlns="http://www.w3.org/2000/svg"
   xmlns:sodipodi="http://sodipodi.sourceforge.net/DTD/sodipodi-0.dtd"
   xmlns:inkscape="http://www.inkscape.org/namespaces/inkscape"
   width="10.583386mm"
   height="11.805761mm"
   viewBox="0 0 10.583386 11.805761"
   version="1.1"
   id="svg1578"
   sodipodi:docname="code.svg"
   inkscape:version="0.92.5 (2060ec1f9f, 2020-04-08)">
  <defs
     id="defs1572" />
  <sodipodi:namedview
     id="base"
     pagecolor="#ffffff"
     bordercolor="#666666"
     borderopacity="1.0"
     inkscape:pageopacity="0.0"
     inkscape:pageshadow="2"
     inkscape:zoom="5.6"
     inkscape:cx="13.229934"
     inkscape:cy="8.1357741"
     inkscape:document-units="mm"
     inkscape:current-layer="layer1"
     showgrid="false"
     inkscape:window-width="960"
     inkscape:window-height="1023"
     inkscape:window-x="0"
     inkscape:window-y="28"
     inkscape:window-maximized="0" />
  <metadata
     id="metadata1575">
    <rdf:RDF>
      <cc:Work
         rdf:about="">
        <dc:format>image/svg+xml</dc:format>
        <dc:type
           rdf:resource="http://purl.org/dc/dcmitype/StillImage" />
        <dc:title></dc:title>
      </cc:Work>
    </rdf:RDF>
  </metadata>
  <g
     inkscape:label="Layer 1"
     inkscape:groupmode="layer"
     id="layer1"
     transform="translate(-6.0475924,-6.8590237)">
    <g
       transform="matrix(0.26458333,0,0,0.26458333,-22.778158,4.4778003)"
       id="g1464">
      <g
         style="stroke-linecap:round"
         id="g98"
         transform="translate(109.94782,10)">
        <path
           style="fill:none;stroke:#000000;stroke-width:2"
           inkscape:connector-curvature="0"
           id="path96"
           d="m 9.5,0 m 0,0 c 4.04,0 8.08,0 19,0 m -19,0 c 7.52,0 15.04,0 19,0 m 0,0 C 34.83,0 38,3.17 38,9.5 M 28.5,0 C 34.83,0 38,3.17 38,9.5 m 0,0 c 0,9.25 0,18.49 0,23.62 M 38,9.5 c 0,9.44 0,18.88 0,23.62 m 0,0 c 0,6.33 -3.17,9.5 -9.5,9.5 m 9.5,-9.5 c 0,6.33 -3.17,9.5 -9.5,9.5 m 0,0 c -6.14,0 -12.28,0 -19,0 m 19,0 c -7.44,0 -14.87,0 -19,0 m 0,0 C 3.17,42.62 0,39.45 0,33.12 m 9.5,9.5 C 3.17,42.62 0,39.45 0,33.12 m 0,0 C 0,25.59 0,18.05 0,9.5 M 0,33.12 C 0,23.92 0,14.71 0,9.5 m 0,0 C 0,3.17 3.17,0 9.5,0 M 0,9.5 C 0,3.17 3.17,0 9.5,0" />
      </g>
      <g
         style="stroke-linecap:round"
         id="g102"
         transform="translate(122.07019,10.089664)">
        <path
           style="fill:none;stroke:#000000;stroke-width:2"
           inkscape:connector-curvature="0"
           id="path100"
           d="m 1.41,0 m 0,0 c 4.15,0 8.3,0 10.93,0 M 1.41,0 c 2.97,0 5.93,0 10.93,0 m 0,0 c 0.94,0 1.42,0.47 1.42,1.41 M 12.34,0 c 0.94,0 1.42,0.47 1.42,1.41 m 0,0 c 0,0.68 0,1.36 0,2.83 m 0,-2.83 c 0,1.03 0,2.05 0,2.83 m 0,0 c 0,0.94 -0.48,1.41 -1.42,1.41 m 1.42,-1.41 c 0,0.94 -0.48,1.41 -1.42,1.41 m 0,0 c -2.41,0 -4.81,0 -10.93,0 m 10.93,0 c -3.2,0 -6.4,0 -10.93,0 m 0,0 C 0.47,5.65 0,5.18 0,4.24 M 1.41,5.65 C 0.47,5.65 0,5.18 0,4.24 m 0,0 C 0,3.18 0,2.12 0,1.41 M 0,4.24 C 0,3.27 0,2.31 0,1.41 m 0,0 C 0,0.47 0.47,0 1.41,0 M 0,1.41 C 0,0.47 0.47,0 1.41,0" />
      </g>
      <g
         id="g106"
         transform="translate(118.44782,23.572104)">
        <g
           id="text104"
           style="font-size:12.38095284px;font-family:'Virgil 3 YOFF';direction:ltr;text-anchor:start;white-space:pre;fill:#000000"
           aria-label="&lt;/&gt;">
          <path
             inkscape:connector-curvature="0"
             id="path1229"
             style="font-size:12.38095284px;font-family:'Virgil 3 YOFF';direction:ltr;text-anchor:start;white-space:pre;fill:#000000"
             d="m 3.1819049,9.4771428 c 0.7552381,0.2104762 1.82,0.5447622 2.4266667,0.9409522 0.074286,0.07429 0.7180953,0.557143 0.7800001,0.619048 0.086667,0.04952 0.2104762,0.08667 0.3219047,0.08667 0.2104762,0 0.4085715,-0.08667 0.4580953,-0.309524 0.1361905,-0.272381 0.099048,-0.507619 0,-0.792381 C 6.8838098,9.2171428 5.7571431,9.0314285 5.0638097,8.6228571 4.0980954,8.2019047 3.0457144,7.9419046 2.0800001,7.5209523 1.9685715,7.3847618 1.7952382,7.2238094 1.844762,7.062857 1.7952382,6.8276189 2.0057144,6.542857 2.0800001,6.3447617 3.0085715,5.3666665 4.3580954,3.4599997 5.4476192,2.593333 5.7200002,2.2590473 6.0666669,1.9866663 6.0790478,1.5780949 6.0171431,1.3799996 5.9180955,1.1695234 5.6828574,1.2561901 4.8904764,1.4790473 4.7047621,1.7390473 4.1228573,2.4323806 3.0457144,3.6209521 2.0552382,4.9333331 0.91619051,6.0352379 0.54476192,6.4685713 -0.03714286,6.9142856 0.04952381,7.5209523 0.09904762,7.9295237 0.26000001,8.2266666 0.59428574,8.4619047 1.2752381,8.8333333 2.4266668,9.1799999 3.1819049,9.4771428 Z" />
          <path
             inkscape:connector-curvature="0"
             id="path1231"
             style="font-size:12.38095284px;font-family:'Virgil 3 YOFF';direction:ltr;text-anchor:start;white-space:pre;fill:#000000"
             d="m 7.3418995,11.284762 c -0.061905,0.123809 -0.086667,0.185714 -0.074286,0.309524 0.1238096,0.148571 0.272381,0.383809 0.4457143,0.334285 0.049524,-0.01238 0.099048,-0.02476 0.1485715,-0.07428 C 8.1961852,11.693333 8.2828519,11.346667 8.5923757,11 10.424757,8.6847618 11.563804,6.6914284 12.851423,4.2895236 13.532376,3.4847616 13.817138,2.4076187 14.200947,2.593333 14.473328,2.4447616 14.683804,1.5904758 14.535233,1.0828568 14.374281,0.82285677 14.126662,0.64952343 13.854281,0.67428534 c -0.185715,0.0247619 -0.38381,0.12380952 -0.581905,0.34666666 -0.02476,0.024762 -0.0619,0.1609524 -0.09905,0.2971429 l -0.0619,0.3714286 C 12.925709,1.9619044 12.727614,2.4819044 12.690471,2.5685711 11.984757,4.0542855 10.932376,5.6390474 10.115233,7.2114284 9.1247567,8.4495237 8.2952328,9.9352381 7.3418995,11.284762 Z" />
          <path
             inkscape:connector-curvature="0"
             id="path1233"
             style="font-size:12.38095284px;font-family:'Virgil 3 YOFF';direction:ltr;text-anchor:start;white-space:pre;fill:#000000"
             d="m 14.80759,10.269524 c 0.136191,0.235238 0.185714,0.507619 0.557143,0.631428 0.136191,0.04952 0.346667,-0.09905 0.458095,-0.160952 0.06191,-0.03714 0.569524,-0.557143 0.631429,-0.619048 1.238095,-0.9409521 1.361905,-1.225714 2.822857,-2.0428569 L 19.3514,8.0038094 C 19.549495,7.595238 19.809495,7.3476189 19.74759,6.9885713 19.698067,6.8276189 19.574257,6.6295236 19.116162,6.5180951 18.918067,6.3199998 18.583781,6.2952379 18.410447,6.1219046 c -1.250476,-1.1019048 -2.6,-2.0304763 -3.887619,-2.8228573 h -0.13619 c 0.01238,0 -0.247619,0.037143 -0.359048,0.2476191 v 0.074286 c 0.235238,0.9533334 0.668572,1.1390477 1.015238,1.4857144 0.09905,0.099048 0.829524,0.5447619 0.866667,0.5447619 0.804762,0.7180952 1.485714,0.9780952 1.956191,1.8076191 -0.01238,0.272381 -1.485715,0.9780953 -1.956191,1.56 -0.359048,0.272381 -1.015238,0.3466667 -1.015238,0.7057144 -0.03714,0.086667 -0.09905,0.3714278 -0.08667,0.4828568 z" />
        </g>
      </g>
    </g>
  </g>
</svg>
