<?xml version="1.0" encoding="UTF-8" standalone="no"?>
<!-- Created with Inkscape (http://www.inkscape.org/) -->

<svg
   xmlns:dc="http://purl.org/dc/elements/1.1/"
   xmlns:cc="http://creativecommons.org/ns#"
   xmlns:rdf="http://www.w3.org/1999/02/22-rdf-syntax-ns#"
   xmlns:svg="http://www.w3.org/2000/svg"
   xmlns="http://www.w3.org/2000/svg"
   xmlns:sodipodi="http://sodipodi.sourceforge.net/DTD/sodipodi-0.dtd"
   xmlns:inkscape="http://www.inkscape.org/namespaces/inkscape"
   width="10.583386mm"
   height="11.805761mm"
   viewBox="0 0 10.583386 11.805761"
   version="1.1"
   id="svg1578"
   sodipodi:docname="markdown-hourglass.svg"
   inkscape:version="0.92.5 (2060ec1f9f, 2020-04-08)">
  <defs
     id="defs1572" />
  <sodipodi:namedview
     id="base"
     pagecolor="#ffffff"
     bordercolor="#666666"
     borderopacity="1.0"
     inkscape:pageopacity="0.0"
     inkscape:pageshadow="2"
     inkscape:zoom="5.6"
     inkscape:cx="13.229934"
     inkscape:cy="8.1357741"
     inkscape:document-units="mm"
     inkscape:current-layer="layer1"
     showgrid="false"
     inkscape:window-width="960"
     inkscape:window-height="1023"
     inkscape:window-x="0"
     inkscape:window-y="28"
     inkscape:window-maximized="0" />
  <metadata
     id="metadata1575">
    <rdf:RDF>
      <cc:Work
         rdf:about="">
        <dc:format>image/svg+xml</dc:format>
        <dc:type
           rdf:resource="http://purl.org/dc/dcmitype/StillImage" />
        <dc:title></dc:title>
      </cc:Work>
    </rdf:RDF>
  </metadata>
  <g
     inkscape:label="Layer 1"
     inkscape:groupmode="layer"
     id="layer1"
     transform="translate(-6.0475924,-6.8590237)">
    <g
       transform="matrix(0.26458333,0,0,0.26458333,3.666369,-12.181566)"
       id="g1356">
      <g
         style="stroke-linecap:round"
         id="g148"
         transform="translate(10,72.964534)">
        <path
           style="fill:none;stroke:#000000;stroke-width:2"
           inkscape:connector-curvature="0"
           id="path146"
           d="m 9.5,0 m 0,0 c 6.55,0 13.11,0 19,0 m -19,0 c 4.99,0 9.97,0 19,0 m 0,0 C 34.83,0 38,3.17 38,9.5 M 28.5,0 C 34.83,0 38,3.17 38,9.5 m 0,0 c 0,7.4 0,14.79 0,23.62 M 38,9.5 c 0,7.7 0,15.4 0,23.62 m 0,0 c 0,6.33 -3.17,9.5 -9.5,9.5 m 9.5,-9.5 c 0,6.33 -3.17,9.5 -9.5,9.5 m 0,0 c -7.47,0 -14.94,0 -19,0 m 19,0 c -5.01,0 -10.01,0 -19,0 m 0,0 C 3.17,42.62 0,39.45 0,33.12 m 9.5,9.5 C 3.17,42.62 0,39.45 0,33.12 m 0,0 C 0,27.86 0,22.6 0,9.5 M 0,33.12 C 0,28.17 0,23.22 0,9.5 m 0,0 C 0,3.17 3.17,0 9.5,0 M 0,9.5 C 0,3.17 3.17,0 9.5,0" />
      </g>
      <g
         style="stroke-linecap:round"
         id="g152"
         transform="translate(22.122365,73.054197)">
        <path
           style="fill:none;stroke:#000000;stroke-width:2"
           inkscape:connector-curvature="0"
           id="path150"
           d="m 1.41,0 m 0,0 C 4.18,0 6.95,0 12.34,0 M 1.41,0 c 2.26,0 4.53,0 10.93,0 m 0,0 c 0.94,0 1.42,0.47 1.42,1.41 M 12.34,0 c 0.94,0 1.42,0.47 1.42,1.41 m 0,0 c 0,0.8 0,1.6 0,2.83 m 0,-2.83 c 0,0.9 0,1.79 0,2.83 m 0,0 c 0,0.94 -0.48,1.41 -1.42,1.41 m 1.42,-1.41 c 0,0.94 -0.48,1.41 -1.42,1.41 m 0,0 c -3.49,0 -6.98,0 -10.93,0 m 10.93,0 c -3.8,0 -7.6,0 -10.93,0 m 0,0 C 0.47,5.65 0,5.18 0,4.24 M 1.41,5.65 C 0.47,5.65 0,5.18 0,4.24 m 0,0 C 0,3.17 0,2.1 0,1.41 M 0,4.24 C 0,3.13 0,2.02 0,1.41 m 0,0 C 0,0.47 0.47,0 1.41,0 M 0,1.41 C 0,0.47 0.47,0 1.41,0" />
      </g>
      <g
         id="g156"
         transform="translate(13,84.274733)">
        <g
           id="text154"
           style="font-size:16px;font-family:'Virgil 3 YOFF';direction:ltr;text-anchor:middle;white-space:pre;fill:#000000"
           aria-label="M ">
          <path
             inkscape:connector-curvature="0"
             id="path1246"
             style="font-size:16px;font-family:'Virgil 3 YOFF';direction:ltr;text-anchor:middle;white-space:pre;fill:#000000"
             d="m 17.376009,13.2 c 0.272,0.608 0.256,1.36 1.008,1.744 0.304,0.288 0.592,0.24 0.928,0.224 0.032,-0.144 0.368,-0.384 0.24,-0.592 -0.032,-0.192 -0.496,-0.816 -0.576,-1.056 -0.496,-1.424 -0.912,-2.832 -1.024,-4.288 -0.256,-1.2 -0.08,-2.256 -0.16,-3.408 -0.112,-0.192 -0.032,-0.976 -0.368,-1.2 -0.112,-0.128 -0.496,-0.432 -0.544,-0.448 -0.016,0 -0.64,-0.128 -0.784,-0.112 -0.128,0.192 -0.464,0.512 -0.4,0.768 -0.064,0.848 -0.192,1.6 -0.528,2.32 -0.288,0.4 -0.464,1.088 -0.784,1.312 -0.048,-0.016 -0.128,-0.08 -0.128,-0.096 l -1.008,-3.2 c 0,-0.016 -0.192,-0.32 -0.24,-0.432 -0.256,-0.432 -0.464,-0.704 -0.944,-0.896 -0.144,-0.064 -0.24,-0.096 -0.336,-0.096 -0.176,0 -0.272,0.128 -0.416,0.32 -0.336,0.88 -0.368,2.32 -0.592,3.184 -0.256,1.328 -0.8799997,2.576 -1.3759997,3.76 -0.224,0.384 -0.688,1.072 -1.024,1.296 -0.064,0.208 -0.08,0.528 0.032,0.784 0.144,0.288 0.448,0.816 0.688,0.896 0.352,0.08 0.656,-0.24 0.912,-0.464 0.6079997,-1.136 1.2159997,-2.48 1.6799997,-3.728 0.208,-0.56 0.416,-1.424 0.672,-1.888 l 0.16,0.128 c 0.096,0.256 0.544,1.6 0.704,1.856 0.256,0.48 0.704,1.152 1.168,1.456 0.496,-0.048 0.752,-0.208 1.008,-0.56 0.304,-0.64 0.592,-1.568 0.96,-1.984 0.016,-0.016 0.096,0.032 0.112,0.032 0.24,0.608 0.16,1.344 0.304,1.952 0.32,0.832 0.32,1.552 0.656,2.416 z" />
        </g>
      </g>
      <g
         style="stroke-linecap:round"
         id="g170">
        <g
           id="g160"
           transform="translate(34.594853,88.651633)">
          <path
             style="fill:none;stroke:#000000;stroke-width:1"
             inkscape:connector-curvature="0"
             id="path158"
             d="M 0,0 C 0,1.64 0,8.2 0,9.84 M 0,0 c 0,1.64 0,8.2 0,9.84" />
        </g>
        <g
           id="g164"
           transform="translate(34.594853,88.651633)">
          <path
             style="fill:none;stroke:#000000;stroke-width:1"
             inkscape:connector-curvature="0"
             id="path162"
             d="M -1.68,5.22 C -1.15,6.67 -0.63,8.12 0,9.84 M -1.68,5.22 C -1.05,6.95 -0.42,8.69 0,9.84" />
        </g>
        <g
           id="g168"
           transform="translate(34.594853,88.651633)">
          <path
             style="fill:none;stroke:#000000;stroke-width:1"
             inkscape:connector-curvature="0"
             id="path166"
             d="M 1.68,5.22 C 1.15,6.67 0.63,8.12 0,9.84 M 1.68,5.22 C 1.05,6.95 0.42,8.69 0,9.84" />
        </g>
      </g>
      <g
         id="g174"
         transform="translate(25.558824,103.26846)">
        <g
           id="text172"
           style="font-size:9.17647076px;font-family:Cascadia, 'Segoe UI Emoji';direction:ltr;text-anchor:start;white-space:pre;fill:#000000"
           aria-label="⧖">
          <path
             inkscape:connector-curvature="0"
             id="path1249"
             style="font-size:9.17647076px;font-family:Cascadia, 'Segoe UI Emoji';direction:ltr;text-anchor:start;white-space:pre;fill:#000000"
             d="M 5.8270589,8.9567063 3.5788236,6.708471 5.8270589,4.4602357 5.5792942,3.9463533 H 0.88094119 L 0.61482354,4.4602357 2.8630589,6.708471 0.61482354,8.9567063 0.88094119,9.4705887 H 5.5792942 Z m -0.761647,0 H 1.3948236 L 3.2301177,7.1214122 Z m 0,-4.4964706 L 3.2301177,6.2955298 1.3948236,4.4602357 Z" />
        </g>
      </g>
    </g>
  </g>
</svg>
