<?xml version="1.0" encoding="UTF-8" standalone="no"?>
<!-- Created with Inkscape (http://www.inkscape.org/) -->

<svg
   xmlns:dc="http://purl.org/dc/elements/1.1/"
   xmlns:cc="http://creativecommons.org/ns#"
   xmlns:rdf="http://www.w3.org/1999/02/22-rdf-syntax-ns#"
   xmlns:svg="http://www.w3.org/2000/svg"
   xmlns="http://www.w3.org/2000/svg"
   xmlns:sodipodi="http://sodipodi.sourceforge.net/DTD/sodipodi-0.dtd"
   xmlns:inkscape="http://www.inkscape.org/namespaces/inkscape"
   width="10.583386mm"
   height="11.805761mm"
   viewBox="0 0 10.583386 11.805761"
   version="1.1"
   id="svg1578"
   inkscape:version="0.92.5 (2060ec1f9f, 2020-04-08)"
   sodipodi:docname="markdown.svg">
  <defs
     id="defs1572" />
  <sodipodi:namedview
     id="base"
     pagecolor="#ffffff"
     bordercolor="#666666"
     borderopacity="1.0"
     inkscape:pageopacity="0.0"
     inkscape:pageshadow="2"
     inkscape:zoom="5.6"
     inkscape:cx="13.051362"
     inkscape:cy="8.1357741"
     inkscape:document-units="mm"
     inkscape:current-layer="layer1"
     showgrid="false"
     inkscape:window-width="960"
     inkscape:window-height="1023"
     inkscape:window-x="0"
     inkscape:window-y="28"
     inkscape:window-maximized="0" />
  <metadata
     id="metadata1575">
    <rdf:RDF>
      <cc:Work
         rdf:about="">
        <dc:format>image/svg+xml</dc:format>
        <dc:type
           rdf:resource="http://purl.org/dc/dcmitype/StillImage" />
        <dc:title></dc:title>
      </cc:Work>
    </rdf:RDF>
  </metadata>
  <g
     inkscape:label="Layer 1"
     inkscape:groupmode="layer"
     id="layer1"
     transform="translate(-6.0475924,-6.8590237)">
    <g
       transform="matrix(0.26458333,0,0,0.26458333,3.6663689,4.4778002)"
       id="g1337">
      <g
         style="stroke-linecap:round"
         id="g72"
         transform="translate(10,10)">
        <path
           style="fill:none;stroke:#000000;stroke-width:2"
           inkscape:connector-curvature="0"
           id="path70"
           d="m 9.5,0 m 0,0 c 6.51,0 13.02,0 19,0 m -19,0 c 3.88,0 7.76,0 19,0 m 0,0 C 34.83,0 38,3.17 38,9.5 M 28.5,0 C 34.83,0 38,3.17 38,9.5 m 0,0 c 0,6.86 0,13.72 0,23.62 M 38,9.5 c 0,4.91 0,9.83 0,23.62 m 0,0 c 0,6.33 -3.17,9.5 -9.5,9.5 m 9.5,-9.5 c 0,6.33 -3.17,9.5 -9.5,9.5 m 0,0 c -5.28,0 -10.56,0 -19,0 m 19,0 c -4.68,0 -9.35,0 -19,0 m 0,0 C 3.17,42.62 0,39.45 0,33.12 m 9.5,9.5 C 3.17,42.62 0,39.45 0,33.12 m 0,0 C 0,27.5 0,21.88 0,9.5 M 0,33.12 C 0,27.15 0,21.18 0,9.5 m 0,0 C 0,3.17 3.17,0 9.5,0 M 0,9.5 C 0,3.17 3.17,0 9.5,0" />
      </g>
      <g
         style="stroke-linecap:round"
         id="g76"
         transform="translate(22.122365,10.089664)">
        <path
           style="fill:none;stroke:#000000;stroke-width:2"
           inkscape:connector-curvature="0"
           id="path74"
           d="m 1.41,0 m 0,0 C 5.28,0 9.15,0 12.34,0 M 1.41,0 C 5.36,0 9.3,0 12.34,0 m 0,0 c 0.94,0 1.42,0.47 1.42,1.41 M 12.34,0 c 0.94,0 1.42,0.47 1.42,1.41 m 0,0 c 0,0.96 0,1.92 0,2.83 m 0,-2.83 c 0,1.1 0,2.2 0,2.83 m 0,0 c 0,0.94 -0.48,1.41 -1.42,1.41 m 1.42,-1.41 c 0,0.94 -0.48,1.41 -1.42,1.41 m 0,0 c -2.2,0 -4.39,0 -10.93,0 m 10.93,0 c -4.31,0 -8.63,0 -10.93,0 m 0,0 C 0.47,5.65 0,5.18 0,4.24 M 1.41,5.65 C 0.47,5.65 0,5.18 0,4.24 m 0,0 C 0,3.32 0,2.4 0,1.41 M 0,4.24 C 0,3.31 0,2.38 0,1.41 m 0,0 C 0,0.47 0.47,0 1.41,0 M 0,1.41 C 0,0.47 0.47,0 1.41,0" />
      </g>
      <g
         id="g80"
         transform="translate(13,21.3102)">
        <g
           id="text78"
           style="font-size:16px;font-family:'Virgil 3 YOFF';direction:ltr;text-anchor:middle;white-space:pre;fill:#000000"
           aria-label="M ">
          <path
             inkscape:connector-curvature="0"
             id="path1226"
             style="font-size:16px;font-family:'Virgil 3 YOFF';direction:ltr;text-anchor:middle;white-space:pre;fill:#000000"
             d="m 17.376009,13.2 c 0.272,0.608 0.256,1.36 1.008,1.744 0.304,0.288 0.592,0.24 0.928,0.224 0.032,-0.144 0.368,-0.384 0.24,-0.592 -0.032,-0.192 -0.496,-0.816 -0.576,-1.056 -0.496,-1.424 -0.912,-2.832 -1.024,-4.288 -0.256,-1.2 -0.08,-2.256 -0.16,-3.408 -0.112,-0.192 -0.032,-0.976 -0.368,-1.2 -0.112,-0.128 -0.496,-0.432 -0.544,-0.448 -0.016,0 -0.64,-0.128 -0.784,-0.112 -0.128,0.192 -0.464,0.512 -0.4,0.768 -0.064,0.848 -0.192,1.6 -0.528,2.32 -0.288,0.4 -0.464,1.088 -0.784,1.312 -0.048,-0.016 -0.128,-0.08 -0.128,-0.096 l -1.008,-3.2 c 0,-0.016 -0.192,-0.32 -0.24,-0.432 -0.256,-0.432 -0.464,-0.704 -0.944,-0.896 -0.144,-0.064 -0.24,-0.096 -0.336,-0.096 -0.176,0 -0.272,0.128 -0.416,0.32 -0.336,0.88 -0.368,2.32 -0.592,3.184 -0.256,1.328 -0.8799997,2.576 -1.3759997,3.76 -0.224,0.384 -0.688,1.072 -1.024,1.296 -0.064,0.208 -0.08,0.528 0.032,0.784 0.144,0.288 0.448,0.816 0.688,0.896 0.352,0.08 0.656,-0.24 0.912,-0.464 0.6079997,-1.136 1.2159997,-2.48 1.6799997,-3.728 0.208,-0.56 0.416,-1.424 0.672,-1.888 l 0.16,0.128 c 0.096,0.256 0.544,1.6 0.704,1.856 0.256,0.48 0.704,1.152 1.168,1.456 0.496,-0.048 0.752,-0.208 1.008,-0.56 0.304,-0.64 0.592,-1.568 0.96,-1.984 0.016,-0.016 0.096,0.032 0.112,0.032 0.24,0.608 0.16,1.344 0.304,1.952 0.32,0.832 0.32,1.552 0.656,2.416 z" />
        </g>
      </g>
      <g
         style="stroke-linecap:round"
         id="g94">
        <g
           id="g84"
           transform="translate(34.594853,25.6871)">
          <path
             style="fill:none;stroke:#000000;stroke-width:1"
             inkscape:connector-curvature="0"
             id="path82"
             d="M 0,0 C 0,1.64 0,8.2 0,9.84 M 0,0 c 0,1.64 0,8.2 0,9.84" />
        </g>
        <g
           id="g88"
           transform="translate(34.594853,25.6871)">
          <path
             style="fill:none;stroke:#000000;stroke-width:1"
             inkscape:connector-curvature="0"
             id="path86"
             d="M -1.68,5.22 C -1.31,6.25 -0.93,7.29 0,9.84 M -1.68,5.22 C -1.21,6.51 -0.74,7.81 0,9.84" />
        </g>
        <g
           id="g92"
           transform="translate(34.594853,25.6871)">
          <path
             style="fill:none;stroke:#000000;stroke-width:1"
             inkscape:connector-curvature="0"
             id="path90"
             d="M 1.68,5.22 C 1.31,6.25 0.93,7.29 0,9.84 M 1.68,5.22 C 1.21,6.51 0.74,7.81 0,9.84" />
        </g>
      </g>
    </g>
  </g>
</svg>
