<?xml version="1.0" encoding="UTF-8" standalone="no"?>
<!-- Created with Inkscape (http://www.inkscape.org/) -->

<svg
   xmlns:dc="http://purl.org/dc/elements/1.1/"
   xmlns:cc="http://creativecommons.org/ns#"
   xmlns:rdf="http://www.w3.org/1999/02/22-rdf-syntax-ns#"
   xmlns:svg="http://www.w3.org/2000/svg"
   xmlns="http://www.w3.org/2000/svg"
   xmlns:sodipodi="http://sodipodi.sourceforge.net/DTD/sodipodi-0.dtd"
   xmlns:inkscape="http://www.inkscape.org/namespaces/inkscape"
   width="10.583386mm"
   height="11.805761mm"
   viewBox="0 0 10.583386 11.805761"
   version="1.1"
   id="svg1578"
   sodipodi:docname="markdown-blockquote.svg"
   inkscape:version="0.92.5 (2060ec1f9f, 2020-04-08)">
  <defs
     id="defs1572" />
  <sodipodi:namedview
     id="base"
     pagecolor="#ffffff"
     bordercolor="#666666"
     borderopacity="1.0"
     inkscape:pageopacity="0.0"
     inkscape:pageshadow="2"
     inkscape:zoom="5.6"
     inkscape:cx="13.229934"
     inkscape:cy="8.1357741"
     inkscape:document-units="mm"
     inkscape:current-layer="layer1"
     showgrid="false"
     inkscape:window-width="960"
     inkscape:window-height="1023"
     inkscape:window-x="0"
     inkscape:window-y="28"
     inkscape:window-maximized="0" />
  <metadata
     id="metadata1575">
    <rdf:RDF>
      <cc:Work
         rdf:about="">
        <dc:format>image/svg+xml</dc:format>
        <dc:type
           rdf:resource="http://purl.org/dc/dcmitype/StillImage" />
        <dc:title></dc:title>
      </cc:Work>
    </rdf:RDF>
  </metadata>
  <g
     inkscape:label="Layer 1"
     inkscape:groupmode="layer"
     id="layer1"
     transform="translate(-6.0475924,-6.8590237)">
    <g
       transform="matrix(0.26458333,0,0,0.26458333,3.666369,-28.840932)"
       id="g1375">
      <g
         style="stroke-linecap:round"
         id="g194"
         transform="translate(10,135.92907)">
        <path
           style="fill:none;stroke:#000000;stroke-width:2"
           inkscape:connector-curvature="0"
           id="path192"
           d="m 9.5,0 m 0,0 c 6.76,0 13.52,0 19,0 m -19,0 c 5.95,0 11.9,0 19,0 m 0,0 C 34.83,0 38,3.17 38,9.5 M 28.5,0 C 34.83,0 38,3.17 38,9.5 m 0,0 c 0,6.87 0,13.75 0,23.62 M 38,9.5 c 0,9.34 0,18.67 0,23.62 m 0,0 c 0,6.33 -3.17,9.5 -9.5,9.5 m 9.5,-9.5 c 0,6.33 -3.17,9.5 -9.5,9.5 m 0,0 c -5.03,0 -10.06,0 -19,0 m 19,0 c -7.05,0 -14.1,0 -19,0 m 0,0 C 3.17,42.62 0,39.45 0,33.12 m 9.5,9.5 C 3.17,42.62 0,39.45 0,33.12 m 0,0 C 0,27.23 0,21.35 0,9.5 M 0,33.12 C 0,26.55 0,19.98 0,9.5 m 0,0 C 0,3.17 3.17,0 9.5,0 M 0,9.5 C 0,3.17 3.17,0 9.5,0" />
      </g>
      <g
         style="stroke-linecap:round"
         id="g198"
         transform="translate(22.122365,136.01873)">
        <path
           style="fill:none;stroke:#000000;stroke-width:2"
           inkscape:connector-curvature="0"
           id="path196"
           d="m 1.41,0 m 0,0 C 4.4,0 7.38,0 12.34,0 M 1.41,0 c 2.27,0 4.53,0 10.93,0 m 0,0 c 0.94,0 1.42,0.47 1.42,1.41 M 12.34,0 c 0.94,0 1.42,0.47 1.42,1.41 m 0,0 c 0,0.76 0,1.53 0,2.83 m 0,-2.83 c 0,0.95 0,1.91 0,2.83 m 0,0 c 0,0.94 -0.48,1.41 -1.42,1.41 m 1.42,-1.41 c 0,0.94 -0.48,1.41 -1.42,1.41 m 0,0 c -3.53,0 -7.06,0 -10.93,0 m 10.93,0 c -3.12,0 -6.25,0 -10.93,0 m 0,0 C 0.47,5.65 0,5.18 0,4.24 M 1.41,5.65 C 0.47,5.65 0,5.18 0,4.24 m 0,0 C 0,3.18 0,2.12 0,1.41 M 0,4.24 C 0,3.16 0,2.08 0,1.41 m 0,0 C 0,0.47 0.47,0 1.41,0 M 0,1.41 C 0,0.47 0.47,0 1.41,0" />
      </g>
      <g
         id="g202"
         transform="translate(13,147.23927)">
        <g
           id="text200"
           style="font-size:16px;font-family:'Virgil 3 YOFF';direction:ltr;text-anchor:middle;white-space:pre;fill:#000000"
           aria-label="M ">
          <path
             inkscape:connector-curvature="0"
             id="path1262"
             style="font-size:16px;font-family:'Virgil 3 YOFF';direction:ltr;text-anchor:middle;white-space:pre;fill:#000000"
             d="m 17.376009,13.2 c 0.272,0.608 0.256,1.36 1.008,1.744 0.304,0.288 0.592,0.24 0.928,0.224 0.032,-0.144 0.368,-0.384 0.24,-0.592 -0.032,-0.192 -0.496,-0.816 -0.576,-1.056 -0.496,-1.424 -0.912,-2.832 -1.024,-4.288 -0.256,-1.2 -0.08,-2.256 -0.16,-3.408 -0.112,-0.192 -0.032,-0.976 -0.368,-1.2 -0.112,-0.128 -0.496,-0.432 -0.544,-0.448 -0.016,0 -0.64,-0.128 -0.784,-0.112 -0.128,0.192 -0.464,0.512 -0.4,0.768 -0.064,0.848 -0.192,1.6 -0.528,2.32 -0.288,0.4 -0.464,1.088 -0.784,1.312 -0.048,-0.016 -0.128,-0.08 -0.128,-0.096 l -1.008,-3.2 c 0,-0.016 -0.192,-0.32 -0.24,-0.432 -0.256,-0.432 -0.464,-0.704 -0.944,-0.896 -0.144,-0.064 -0.24,-0.096 -0.336,-0.096 -0.176,0 -0.272,0.128 -0.416,0.32 -0.336,0.88 -0.368,2.32 -0.592,3.184 -0.256,1.328 -0.8799997,2.576 -1.3759997,3.76 -0.224,0.384 -0.688,1.072 -1.024,1.296 -0.064,0.208 -0.08,0.528 0.032,0.784 0.144,0.288 0.448,0.816 0.688,0.896 0.352,0.08 0.656,-0.24 0.912,-0.464 0.6079997,-1.136 1.2159997,-2.48 1.6799997,-3.728 0.208,-0.56 0.416,-1.424 0.672,-1.888 l 0.16,0.128 c 0.096,0.256 0.544,1.6 0.704,1.856 0.256,0.48 0.704,1.152 1.168,1.456 0.496,-0.048 0.752,-0.208 1.008,-0.56 0.304,-0.64 0.592,-1.568 0.96,-1.984 0.016,-0.016 0.096,0.032 0.112,0.032 0.24,0.608 0.16,1.344 0.304,1.952 0.32,0.832 0.32,1.552 0.656,2.416 z" />
        </g>
      </g>
      <g
         style="stroke-linecap:round"
         id="g216">
        <g
           id="g206"
           transform="translate(34.594853,151.61617)">
          <path
             style="fill:none;stroke:#000000;stroke-width:1"
             inkscape:connector-curvature="0"
             id="path204"
             d="M 0,0 C 0,1.64 0,8.2 0,9.84 M 0,0 c 0,1.64 0,8.2 0,9.84" />
        </g>
        <g
           id="g210"
           transform="translate(34.594853,151.61617)">
          <path
             style="fill:none;stroke:#000000;stroke-width:1"
             inkscape:connector-curvature="0"
             id="path208"
             d="m -1.68,5.22 c 0.5,1.37 1,2.74 1.68,4.62 M -1.68,5.22 C -1.03,7 -0.38,8.79 0,9.84" />
        </g>
        <g
           id="g214"
           transform="translate(34.594853,151.61617)">
          <path
             style="fill:none;stroke:#000000;stroke-width:1"
             inkscape:connector-curvature="0"
             id="path212"
             d="M 1.68,5.22 C 1.18,6.59 0.68,7.96 0,9.84 M 1.68,5.22 C 1.03,7 0.38,8.79 0,9.84" />
        </g>
      </g>
      <g
         id="g220"
         transform="translate(13.805541,150.47097)">
        <g
           id="text218"
           style="font-size:10.136446px;font-family:'Virgil 3 YOFF';direction:ltr;text-anchor:start;white-space:pre;fill:#000000"
           aria-label="&gt;">
          <path
             inkscape:connector-curvature="0"
             id="path1265"
             style="font-size:10.136446px;font-family:'Virgil 3 YOFF';direction:ltr;text-anchor:start;white-space:pre;fill:#000000"
             d="M 0.92241659,8.4019497 C 1.0339175,8.5945422 1.0744633,8.817544 1.3785567,8.9189084 1.4900576,8.9594542 1.6623771,8.8378169 1.7536052,8.7871346 1.8042874,8.7567253 2.2198817,8.3309946 2.2705639,8.2803123 3.2842085,7.5099424 3.385573,7.2768042 4.5816736,6.6077987 l 0.060819,-0.060819 C 4.8046754,6.2124774 5.0175408,6.0097484 4.9668585,5.7157915 4.9263128,5.5840177 4.8249483,5.4218346 4.4498998,5.3306065 4.2877167,5.1684234 4.0140326,5.1481505 3.8721224,5.0062403 2.8483413,4.1040966 1.7434687,3.3438631 0.68927833,2.6951306 H 0.57777742 c 0.0101364,0 -0.20272892,0.030409 -0.29395693,0.2027289 v 0.060819 C 0.47641296,3.7391848 0.83118857,3.8912315 1.1150091,4.175052 1.1961011,4.256144 1.7941509,4.6210556 1.8245603,4.6210556 2.4834293,5.2089695 3.0409338,5.4218349 3.4261187,6.1009767 3.4159823,6.3239783 2.2097452,6.9017557 1.8245603,7.3781686 1.5306033,7.6011705 0.99337171,7.6619891 0.99337171,7.9559461 0.96296237,8.0269012 0.91228014,8.2600394 0.92241659,8.3512675 Z" />
        </g>
      </g>
    </g>
  </g>
</svg>
