<?xml version="1.0" encoding="UTF-8" standalone="no"?>
<!-- Created with Inkscape (http://www.inkscape.org/) -->

<svg
   xmlns:dc="http://purl.org/dc/elements/1.1/"
   xmlns:cc="http://creativecommons.org/ns#"
   xmlns:rdf="http://www.w3.org/1999/02/22-rdf-syntax-ns#"
   xmlns:svg="http://www.w3.org/2000/svg"
   xmlns="http://www.w3.org/2000/svg"
   xmlns:sodipodi="http://sodipodi.sourceforge.net/DTD/sodipodi-0.dtd"
   xmlns:inkscape="http://www.inkscape.org/namespaces/inkscape"
   width="10.583386mm"
   height="11.805761mm"
   viewBox="0 0 10.583386 11.805761"
   version="1.1"
   id="svg1578"
   sodipodi:docname="passthrough.svg"
   inkscape:version="0.92.5 (2060ec1f9f, 2020-04-08)">
  <defs
     id="defs1572" />
  <sodipodi:namedview
     id="base"
     pagecolor="#ffffff"
     bordercolor="#666666"
     borderopacity="1.0"
     inkscape:pageopacity="0.0"
     inkscape:pageshadow="2"
     inkscape:zoom="5.6"
     inkscape:cx="13.229934"
     inkscape:cy="8.1357741"
     inkscape:document-units="mm"
     inkscape:current-layer="layer1"
     showgrid="false"
     inkscape:window-width="960"
     inkscape:window-height="1023"
     inkscape:window-x="0"
     inkscape:window-y="28"
     inkscape:window-maximized="0" />
  <metadata
     id="metadata1575">
    <rdf:RDF>
      <cc:Work
         rdf:about="">
        <dc:format>image/svg+xml</dc:format>
        <dc:type
           rdf:resource="http://purl.org/dc/dcmitype/StillImage" />
        <dc:title></dc:title>
      </cc:Work>
    </rdf:RDF>
  </metadata>
  <g
     inkscape:label="Layer 1"
     inkscape:groupmode="layer"
     id="layer1"
     transform="translate(-6.0475924,-6.8590237)">
    <g
       transform="matrix(0.26458333,0,0,0.26458333,-36.065752,4.4778003)"
       id="g1522">
      <g
         style="stroke-linecap:round"
         id="g110"
         transform="translate(160.16865,10)">
        <path
           style="fill:none;stroke:#000000;stroke-width:2"
           inkscape:connector-curvature="0"
           id="path108"
           d="m 9.5,0 m 0,0 c 4.16,0 8.33,0 19,0 m -19,0 c 6.69,0 13.38,0 19,0 m 0,0 C 34.83,0 38,3.17 38,9.5 M 28.5,0 C 34.83,0 38,3.17 38,9.5 m 0,0 c 0,8.82 0,17.64 0,23.62 M 38,9.5 c 0,8.71 0,17.43 0,23.62 m 0,0 c 0,6.33 -3.17,9.5 -9.5,9.5 m 9.5,-9.5 c 0,6.33 -3.17,9.5 -9.5,9.5 m 0,0 c -6.57,0 -13.15,0 -19,0 m 19,0 c -5.93,0 -11.86,0 -19,0 m 0,0 C 3.17,42.62 0,39.45 0,33.12 m 9.5,9.5 C 3.17,42.62 0,39.45 0,33.12 m 0,0 C 0,25.23 0,17.34 0,9.5 M 0,33.12 C 0,26.97 0,20.83 0,9.5 m 0,0 C 0,3.17 3.17,0 9.5,0 M 0,9.5 C 0,3.17 3.17,0 9.5,0" />
      </g>
      <g
         style="stroke-linecap:round"
         id="g114"
         transform="translate(172.29102,10.089664)">
        <path
           style="fill:none;stroke:#000000;stroke-width:2"
           inkscape:connector-curvature="0"
           id="path112"
           d="m 1.41,0 m 0,0 C 4.33,0 7.25,0 12.34,0 M 1.41,0 c 3.41,0 6.81,0 10.93,0 m 0,0 c 0.94,0 1.42,0.47 1.42,1.41 M 12.34,0 c 0.94,0 1.42,0.47 1.42,1.41 m 0,0 c 0,1.02 0,2.03 0,2.83 m 0,-2.83 c 0,0.81 0,1.61 0,2.83 m 0,0 c 0,0.94 -0.48,1.41 -1.42,1.41 m 1.42,-1.41 c 0,0.94 -0.48,1.41 -1.42,1.41 m 0,0 c -3.03,0 -6.06,0 -10.93,0 m 10.93,0 c -2.28,0 -4.56,0 -10.93,0 m 0,0 C 0.47,5.65 0,5.18 0,4.24 M 1.41,5.65 C 0.47,5.65 0,5.18 0,4.24 m 0,0 C 0,3.67 0,3.11 0,1.41 M 0,4.24 C 0,3.22 0,2.21 0,1.41 m 0,0 C 0,0.47 0.47,0 1.41,0 M 0,1.41 C 0,0.47 0.47,0 1.41,0" />
      </g>
      <g
         style="stroke-linecap:round"
         id="g128">
        <g
           id="g118"
           transform="translate(170.75262,32.384287)">
          <path
             style="fill:none;stroke:#000000;stroke-width:2"
             inkscape:connector-curvature="0"
             id="path116"
             d="M 0,0 C 2.81,0 14.03,0 16.83,0 M 0,0 c 2.81,0 14.03,0 16.83,0" />
        </g>
        <g
           id="g122"
           transform="translate(170.75262,32.384287)">
          <path
             style="fill:none;stroke:#000000;stroke-width:2"
             inkscape:connector-curvature="0"
             id="path120"
             d="M 8.92,2.88 C 10.74,2.22 12.55,1.56 16.83,0 M 8.92,2.88 C 12.01,1.76 15.09,0.64 16.83,0" />
        </g>
        <g
           id="g126"
           transform="translate(170.75262,32.384287)">
          <path
             style="fill:none;stroke:#000000;stroke-width:2"
             inkscape:connector-curvature="0"
             id="path124"
             d="m 8.92,-2.88 c 1.82,0.66 3.63,1.32 7.91,2.88 M 8.92,-2.88 c 3.09,1.12 6.17,2.24 7.91,2.88" />
        </g>
      </g>
    </g>
  </g>
</svg>
