<?xml version="1.0" encoding="UTF-8" standalone="no"?>
<!-- Created with Inkscape (http://www.inkscape.org/) -->

<svg
   xmlns:dc="http://purl.org/dc/elements/1.1/"
   xmlns:cc="http://creativecommons.org/ns#"
   xmlns:rdf="http://www.w3.org/1999/02/22-rdf-syntax-ns#"
   xmlns:svg="http://www.w3.org/2000/svg"
   xmlns="http://www.w3.org/2000/svg"
   xmlns:sodipodi="http://sodipodi.sourceforge.net/DTD/sodipodi-0.dtd"
   xmlns:inkscape="http://www.inkscape.org/namespaces/inkscape"
   width="11.694864mm"
   height="6.2876959mm"
   viewBox="0 0 11.694864 6.2876957"
   version="1.1"
   id="svg1578"
   sodipodi:docname="quote-text.svg"
   inkscape:version="0.92.5 (2060ec1f9f, 2020-04-08)">
  <defs
     id="defs1572" />
  <sodipodi:namedview
     id="base"
     pagecolor="#ffffff"
     bordercolor="#666666"
     borderopacity="1.0"
     inkscape:pageopacity="0.0"
     inkscape:pageshadow="2"
     inkscape:zoom="5.6"
     inkscape:cx="15.151894"
     inkscape:cy="-4.0891084"
     inkscape:document-units="mm"
     inkscape:current-layer="layer1"
     showgrid="false"
     inkscape:window-width="960"
     inkscape:window-height="1023"
     inkscape:window-x="0"
     inkscape:window-y="28"
     inkscape:window-maximized="0" />
  <metadata
     id="metadata1575">
    <rdf:RDF>
      <cc:Work
         rdf:about="">
        <dc:format>image/svg+xml</dc:format>
        <dc:type
           rdf:resource="http://purl.org/dc/dcmitype/StillImage" />
        <dc:title></dc:title>
      </cc:Work>
    </rdf:RDF>
  </metadata>
  <g
     inkscape:label="Layer 1"
     inkscape:groupmode="layer"
     id="layer1"
     transform="translate(-5.5390738,-9.1425887)">
    <g
       transform="matrix(0.26458333,0,0,0.26458333,5.2723738,6.6004721)"
       id="g8">
      <g
         aria-label="&gt;..."
         style="font-size:36px;font-family:'Virgil 3 YOFF';direction:ltr;text-anchor:start;white-space:pre;fill:#000000"
         id="text6">
        <path
           inkscape:connector-curvature="0"
           d="m 3.276,29.876 c 0.396,0.684 0.54,1.476 1.62,1.836 0.396,0.144 1.008,-0.288 1.332,-0.468 0.18,-0.108 1.656,-1.62 1.836,-1.8 3.6,-2.736 3.96,-3.564 8.208,-5.94 l 0.216,-0.216 C 17.064,22.1 17.82,21.38 17.64,20.336 17.496,19.868 17.136,19.292 15.804,18.968 15.228,18.392 14.256,18.32 13.752,17.816 10.116,14.612 6.192,11.912 2.448,9.608 H 2.052 c 0.036,0 -0.72,0.108 -1.044,0.72 v 0.216 c 0.684,2.772 1.944,3.312 2.952,4.32 0.288,0.288 2.412,1.584 2.52,1.584 2.34,2.088 4.32,2.844 5.688,5.256 -0.036,0.792 -4.32,2.844 -5.688,4.536 -1.044,0.792 -2.952,1.008 -2.952,2.052 -0.108,0.252 -0.288,1.08 -0.252,1.404 z"
           style="font-size:36px;font-family:'Virgil 3 YOFF';direction:ltr;text-anchor:start;white-space:pre;fill:#000000"
           id="path1207" />
        <path
           inkscape:connector-curvature="0"
           d="m 19.943953,31.1 c -0.072,0.756 0.036,1.368 0.72,1.764 0.612,0.36 1.116,0.54 1.836,0.504 0.9,0 1.224,-0.324 1.8,-0.72 0.648,-0.54 1.332,-1.404 1.152,-2.304 -0.072,-0.936 -0.396,-1.188 -0.684,-1.98 -0.54,-0.828 -1.62,-0.756 -2.52,-0.684 -0.612,0.396 -1.584,1.08 -2.052,1.584 -0.288,0.648 -0.216,0.972 -0.252,1.836 z"
           style="font-size:36px;font-family:'Virgil 3 YOFF';direction:ltr;text-anchor:start;white-space:pre;fill:#000000"
           id="path1209" />
        <path
           inkscape:connector-curvature="0"
           d="m 29.807891,31.1 c -0.072,0.756 0.036,1.368 0.72,1.764 0.612,0.36 1.116,0.54 1.836,0.504 0.9,0 1.224,-0.324 1.8,-0.72 0.648,-0.54 1.332,-1.404 1.152,-2.304 -0.072,-0.936 -0.396,-1.188 -0.684,-1.98 -0.54,-0.828 -1.62,-0.756 -2.52,-0.684 -0.612,0.396 -1.584,1.08 -2.052,1.584 -0.288,0.648 -0.216,0.972 -0.252,1.836 z"
           style="font-size:36px;font-family:'Virgil 3 YOFF';direction:ltr;text-anchor:start;white-space:pre;fill:#000000"
           id="path1211" />
        <path
           inkscape:connector-curvature="0"
           d="m 39.671828,31.1 c -0.072,0.756 0.036,1.368 0.72,1.764 0.612,0.36 1.116,0.54 1.836,0.504 0.9,0 1.224,-0.324 1.8,-0.72 0.648,-0.54 1.332,-1.404 1.152,-2.304 -0.072,-0.936 -0.396,-1.188 -0.684,-1.98 -0.54,-0.828 -1.62,-0.756 -2.52,-0.684 -0.612,0.396 -1.584,1.08 -2.052,1.584 -0.288,0.648 -0.216,0.972 -0.252,1.836 z"
           style="font-size:36px;font-family:'Virgil 3 YOFF';direction:ltr;text-anchor:start;white-space:pre;fill:#000000"
           id="path1213" />
      </g>
    </g>
  </g>
</svg>
