<?xml version="1.0" encoding="UTF-8" standalone="no"?>
<!-- Created with Inkscape (http://www.inkscape.org/) -->

<svg
   xmlns:dc="http://purl.org/dc/elements/1.1/"
   xmlns:cc="http://creativecommons.org/ns#"
   xmlns:rdf="http://www.w3.org/1999/02/22-rdf-syntax-ns#"
   xmlns:svg="http://www.w3.org/2000/svg"
   xmlns="http://www.w3.org/2000/svg"
   xmlns:sodipodi="http://sodipodi.sourceforge.net/DTD/sodipodi-0.dtd"
   xmlns:inkscape="http://www.inkscape.org/namespaces/inkscape"
   width="10.583386mm"
   height="11.805761mm"
   viewBox="0 0 10.583386 11.805761"
   version="1.1"
   id="svg1578"
   sodipodi:docname="text-blockquote-hourglass.svg"
   inkscape:version="0.92.5 (2060ec1f9f, 2020-04-08)">
  <defs
     id="defs1572" />
  <sodipodi:namedview
     id="base"
     pagecolor="#ffffff"
     bordercolor="#666666"
     borderopacity="1.0"
     inkscape:pageopacity="0.0"
     inkscape:pageshadow="2"
     inkscape:zoom="5.6"
     inkscape:cx="13.229934"
     inkscape:cy="8.1357741"
     inkscape:document-units="mm"
     inkscape:current-layer="layer1"
     showgrid="false"
     inkscape:window-width="960"
     inkscape:window-height="1023"
     inkscape:window-x="0"
     inkscape:window-y="28"
     inkscape:window-maximized="0" />
  <metadata
     id="metadata1575">
    <rdf:RDF>
      <cc:Work
         rdf:about="">
        <dc:format>image/svg+xml</dc:format>
        <dc:type
           rdf:resource="http://purl.org/dc/dcmitype/StillImage" />
        <dc:title></dc:title>
      </cc:Work>
    </rdf:RDF>
  </metadata>
  <g
     inkscape:label="Layer 1"
     inkscape:groupmode="layer"
     id="layer1"
     transform="translate(-6.0475924,-6.8590237)">
    <g
       transform="matrix(0.26458333,0,0,0.26458333,-9.5558945,-45.500297)"
       id="g1414">
      <g
         style="stroke-linecap:round"
         id="g290"
         transform="translate(59.97391,198.8936)">
        <path
           style="fill:none;stroke:#000000;stroke-width:2"
           inkscape:connector-curvature="0"
           id="path288"
           d="m 9.5,0 m 0,0 c 5.81,0 11.63,0 19,0 m -19,0 c 4.33,0 8.67,0 19,0 m 0,0 C 34.83,0 38,3.17 38,9.5 M 28.5,0 C 34.83,0 38,3.17 38,9.5 m 0,0 c 0,8.96 0,17.92 0,23.62 M 38,9.5 c 0,9.08 0,18.15 0,23.62 m 0,0 c 0,6.33 -3.17,9.5 -9.5,9.5 m 9.5,-9.5 c 0,6.33 -3.17,9.5 -9.5,9.5 m 0,0 c -5.39,0 -10.78,0 -19,0 m 19,0 c -5.4,0 -10.81,0 -19,0 m 0,0 C 3.17,42.62 0,39.45 0,33.12 m 9.5,9.5 C 3.17,42.62 0,39.45 0,33.12 m 0,0 C 0,26.99 0,20.87 0,9.5 M 0,33.12 C 0,26.45 0,19.77 0,9.5 m 0,0 C 0,3.17 3.17,0 9.5,0 M 0,9.5 C 0,3.17 3.17,0 9.5,0" />
      </g>
      <g
         style="stroke-linecap:round"
         id="g294"
         transform="translate(72.096275,198.98326)">
        <path
           style="fill:none;stroke:#000000;stroke-width:2"
           inkscape:connector-curvature="0"
           id="path292"
           d="m 1.41,0 m 0,0 C 3.67,0 5.93,0 12.34,0 M 1.41,0 c 3.74,0 7.48,0 10.93,0 m 0,0 c 0.94,0 1.42,0.47 1.42,1.41 M 12.34,0 c 0.94,0 1.42,0.47 1.42,1.41 m 0,0 c 0,0.58 0,1.16 0,2.83 m 0,-2.83 c 0,0.67 0,1.34 0,2.83 m 0,0 c 0,0.94 -0.48,1.41 -1.42,1.41 m 1.42,-1.41 c 0,0.94 -0.48,1.41 -1.42,1.41 m 0,0 c -3.75,0 -7.51,0 -10.93,0 m 10.93,0 c -2.76,0 -5.52,0 -10.93,0 m 0,0 C 0.47,5.65 0,5.18 0,4.24 M 1.41,5.65 C 0.47,5.65 0,5.18 0,4.24 m 0,0 C 0,3.12 0,2 0,1.41 M 0,4.24 C 0,3.37 0,2.5 0,1.41 m 0,0 C 0,0.47 0.47,0 1.41,0 M 0,1.41 C 0,0.47 0.47,0 1.41,0" />
      </g>
      <g
         id="g298"
         transform="translate(70.140576,212.46571)">
        <g
           id="text296"
           style="font-size:12.38095284px;font-family:'Virgil 3 YOFF';direction:ltr;text-anchor:start;white-space:pre;fill:#000000"
           aria-label="abc">
          <path
             inkscape:connector-curvature="0"
             id="path1297"
             style="font-size:12.38095284px;font-family:'Virgil 3 YOFF';direction:ltr;text-anchor:start;white-space:pre;fill:#000000"
             d="M 5.0514288,9.6933334 C 5.5342859,10.213333 6.0171431,10.894286 6.5371431,11.34 l 0.049524,0.02476 c 0.3466667,0.185714 0.52,0.359048 0.8914286,0.272381 C 7.6638098,11.587619 7.9114289,11.500952 8.0228574,11.34 8.0476193,11.253333 8.134286,11.104762 8.1095241,11.018095 8.0723812,10.980952 7.9857146,10.881905 7.9485717,10.869524 7.6761908,10.832381 7.5523812,10.621905 7.2428574,10.399048 7.1438098,10.275238 6.7104764,9.9657143 6.6114288,9.8419048 6.2400002,9.2352381 5.8561907,8.4923809 5.521905,7.8114285 5.4228573,7.6628571 5.2247621,7.5761904 5.0514288,7.5019047 5.0142859,7.4647618 4.9028573,7.3780952 4.8904764,7.3409523 4.989524,7.1057142 4.6428573,7.0438095 4.5066668,6.9447618 c -0.3714286,-0.037143 -0.78,-0.099048 -1.1761905,-0.099048 -0.5076191,0 -1.0028572,0.086667 -1.4114286,0.4209524 C 1.2257143,7.848571 0.30952382,8.5542853 0.27238096,9.5323806 0.13619048,10.089524 0.43333335,10.535238 0.74285717,11.018095 c 0.32190473,0.38381 0.92857143,0.606667 1.43619053,0.544762 1.0895238,0.01238 1.9561905,-0.817143 2.637143,-1.56 C 4.8657147,9.916191 4.9647621,9.7552377 5.0514288,9.6933334 Z M 1.4485715,10.077143 C 1.312381,9.8295238 1.1885715,9.532381 1.3742858,9.2971429 1.7952382,8.7028571 2.3028572,7.9847619 3.0085715,7.8857142 3.5038097,7.7742857 3.949524,7.8238095 4.4323811,7.7123809 4.4447621,7.8733333 4.3580954,8.207619 4.3457144,8.3561905 4.2961906,8.7771428 4.0361906,9.2104762 3.8009525,9.532381 c -0.3466667,0.3838095 -0.5447619,0.569524 -1.1019048,0.78 -0.1857143,0.04952 -0.3838095,0.09905 -0.5819048,0.09905 -0.26,0 -0.507619,-0.08667 -0.6685714,-0.334286 z" />
          <path
             inkscape:connector-curvature="0"
             id="path1299"
             style="font-size:12.38095284px;font-family:'Virgil 3 YOFF';direction:ltr;text-anchor:start;white-space:pre;fill:#000000"
             d="m 8.5552357,7.6257142 c -0.012381,0.5571429 -0.012381,1.2504763 0,1.8076191 0.074286,0.7180957 0.4580953,1.3619047 1.052381,1.7333337 0.5571433,0.321905 0.9657143,0.507619 1.5723813,0.458095 0.767619,0.01238 1.522857,-0.198095 2.154286,-0.631429 0.458095,-0.420952 0.978095,-0.879047 0.879047,-1.5352377 C 14.262855,8.8761905 13.80476,8.0961904 13.247617,7.8238095 12.715236,7.5761904 12.195236,7.4895238 11.638093,7.4895238 c -0.39619,0 -0.792381,0.049524 -1.225714,0.086667 -0.01238,0 -0.04952,0 -0.111429,0.012381 l -0.3961904,0.074286 c -0.061905,0 -0.099048,0.012381 -0.1114286,0.012381 -0.074286,-0.5695238 0,-1.7333334 0.099048,-2.5504762 C 9.9419025,4.270476 10.115236,3.4657141 10.127617,2.6114283 10.028569,2.4009521 9.805712,2.2028569 9.5828548,2.2028569 c -0.086667,0 -0.1733333,0.037143 -0.247619,0.099048 C 9.2238072,2.425714 9.0752358,2.5247617 9.025712,2.698095 9.013331,4.022857 8.8028548,5.4466665 8.7161881,6.7714285 8.6914262,6.9695237 8.6047596,7.3780952 8.5552357,7.6257142 Z m 1.324762,1.7085715 c -0.049524,-0.2352381 0.061905,-0.3095238 0.2476193,-0.4580952 0.371428,-0.2228572 1.015238,-0.4457143 1.572381,-0.4457143 0.160952,0 0.321905,0.024762 0.458095,0.061905 0.396191,0.1238096 0.928571,0.6190477 0.78,1.0895239 -0.123809,0.5571429 -0.705714,0.7676189 -1.17619,0.8666659 -0.38381,0.03714 -0.928572,0 -1.250477,-0.07428 C 10.263807,10.139048 9.7809501,9.7552381 9.8799977,9.3342857 Z" />
          <path
             inkscape:connector-curvature="0"
             id="path1301"
             style="font-size:12.38095284px;font-family:'Virgil 3 YOFF';direction:ltr;text-anchor:start;white-space:pre;fill:#000000"
             d="m 14.745705,9.0619048 c -0.04952,0.4828571 0.02476,1.0276192 0.309523,1.4114282 0.433334,0.557143 1.126667,0.940953 1.80762,1.16381 0.606666,0.185714 1.188571,0.272381 1.807619,0.383809 0.445714,0.12381 0.792381,0.210477 1.250476,0.160953 0.235238,-0.07429 0.569524,-0.309524 0.631428,-0.544762 0.02476,-0.111429 -0.13619,-0.371429 -0.235238,-0.458095 l -1.498095,-0.321905 c -0.631429,-0.111429 -1.287619,-0.210476 -1.894286,-0.445714 -0.334285,-0.12381 -0.606666,-0.359048 -0.841905,-0.6438099 -0.297142,-0.1485715 -0.07428,-0.7057143 -0.08667,-0.8666667 0.371428,-0.52 0.767619,-1.0895239 1.411428,-1.2504763 0.309524,-0.012381 0.594286,-0.061905 0.879048,0.1238096 0.136191,0.074286 0.321905,0.5695238 0.38381,0.7304762 0.09905,0.2723809 0.408571,0.1485714 0.619047,0.1609524 0.148572,-0.012381 0.26,-0.1980953 0.321905,-0.3095238 C 19.636181,7.96 19.6238,7.5142857 19.376181,7.1799999 19.017133,6.8209523 18.596181,6.362857 18.039038,6.387619 17.234276,6.2390475 16.392371,6.635238 15.847609,7.2542857 15.2038,7.7990476 14.869514,8.2571428 14.745705,9.0619048 Z" />
        </g>
      </g>
      <g
         id="g302"
         transform="translate(75.532733,229.02976)">
        <g
           id="text300"
           style="font-size:9.17647076px;font-family:Cascadia, 'Segoe UI Emoji';direction:ltr;text-anchor:start;white-space:pre;fill:#000000"
           aria-label="⧖">
          <path
             inkscape:connector-curvature="0"
             id="path1304"
             style="font-size:9.17647076px;font-family:Cascadia, 'Segoe UI Emoji';direction:ltr;text-anchor:start;white-space:pre;fill:#000000"
             d="M 5.8270589,8.9567063 3.5788236,6.708471 5.8270589,4.4602357 5.5792942,3.9463533 H 0.88094119 L 0.61482354,4.4602357 2.8630589,6.708471 0.61482354,8.9567063 0.88094119,9.4705887 H 5.5792942 Z m -0.761647,0 H 1.3948236 L 3.2301177,7.1214122 Z m 0,-4.4964706 L 3.2301177,6.2955298 1.3948236,4.4602357 Z" />
        </g>
      </g>
      <g
         id="g306"
         transform="translate(63.722182,215.10214)">
        <g
           id="text304"
           style="font-size:10.136446px;font-family:'Virgil 3 YOFF';direction:ltr;text-anchor:start;white-space:pre;fill:#000000"
           aria-label="&gt;">
          <path
             inkscape:connector-curvature="0"
             id="path1307"
             style="font-size:10.136446px;font-family:'Virgil 3 YOFF';direction:ltr;text-anchor:start;white-space:pre;fill:#000000"
             d="M 0.92241659,8.4019497 C 1.0339175,8.5945422 1.0744633,8.817544 1.3785567,8.9189084 1.4900576,8.9594542 1.6623771,8.8378169 1.7536052,8.7871346 1.8042874,8.7567253 2.2198817,8.3309946 2.2705639,8.2803123 3.2842085,7.5099424 3.385573,7.2768042 4.5816736,6.6077987 l 0.060819,-0.060819 C 4.8046754,6.2124774 5.0175408,6.0097484 4.9668585,5.7157915 4.9263128,5.5840177 4.8249483,5.4218346 4.4498998,5.3306065 4.2877167,5.1684234 4.0140326,5.1481505 3.8721224,5.0062403 2.8483413,4.1040966 1.7434687,3.3438631 0.68927833,2.6951306 H 0.57777742 c 0.0101364,0 -0.20272892,0.030409 -0.29395693,0.2027289 v 0.060819 C 0.47641296,3.7391848 0.83118857,3.8912315 1.1150091,4.175052 1.1961011,4.256144 1.7941509,4.6210556 1.8245603,4.6210556 2.4834293,5.2089695 3.0409338,5.4218349 3.4261187,6.1009767 3.4159823,6.3239783 2.2097452,6.9017557 1.8245603,7.3781686 1.5306033,7.6011705 0.99337171,7.6619891 0.99337171,7.9559461 0.96296237,8.0269012 0.91228014,8.2600394 0.92241659,8.3512675 Z" />
        </g>
      </g>
    </g>
  </g>
</svg>
