<?xml version="1.0" encoding="UTF-8" standalone="no"?>
<svg
   xmlns:dc="http://purl.org/dc/elements/1.1/"
   xmlns:cc="http://creativecommons.org/ns#"
   xmlns:rdf="http://www.w3.org/1999/02/22-rdf-syntax-ns#"
   xmlns:svg="http://www.w3.org/2000/svg"
   xmlns="http://www.w3.org/2000/svg"
   id="svg1578"
   version="1.1"
   viewBox="0 0 100 100"
   height="100"
   width="100">
  <defs
     id="defs1572" />
  <metadata
     id="metadata1575">
    <rdf:RDF>
      <cc:Work
         rdf:about="">
        <dc:format>image/svg+xml</dc:format>
        <dc:type
           rdf:resource="http://purl.org/dc/dcmitype/StillImage" />
        <dc:title></dc:title>
      </cc:Work>
    </rdf:RDF>
  </metadata>
  <g
     transform="translate(-5.5390738,11.028048)"
     id="layer1">
    <g
       id="g48"
       transform="matrix(2.1290806,0,0,2.1290806,15.086542,-6.3987556)"
       style="stroke-linecap:round">
      <path
         id="path46"
         d="M 9.5,0 M 9.5,0 C 16.74,0 23.98,0 28.5,0 M 9.5,0 C 14.41,0 19.33,0 28.5,0 M 28.5,0 C 34.83,0 38,3.17 38,9.5 M 28.5,0 C 34.83,0 38,3.17 38,9.5 M 38,9.5 C 38,16.15 38,22.8 38,33.12 M 38,9.5 C 38,15.67 38,21.83 38,33.12 M 38,33.12 C 38,39.45 34.83,42.62 28.5,42.62 M 38,33.12 C 38,39.45 34.83,42.62 28.5,42.62 M 28.5,42.62 C 22.84,42.62 17.19,42.62 9.5,42.62 M 28.5,42.62 C 24.01,42.62 19.53,42.62 9.5,42.62 M 9.5,42.62 C 3.17,42.62 0,39.45 0,33.12 M 9.5,42.62 C 3.17,42.62 0,39.45 0,33.12 M 0,33.12 C 0,23.95 0,14.78 0,9.5 M 0,33.12 C 0,26.53 0,19.94 0,9.5 M 0,9.5 C 0,3.17 3.17,0 9.5,0 M 0,9.5 C 0,3.17 3.17,0 9.5,0"
         style="fill:none;stroke:#000000;stroke-width:2" />
    </g>
    <g
       id="g52"
       transform="matrix(2.1290806,0,0,2.1290806,38.811312,-6.2078536)"
       style="stroke-linecap:round">
      <path
         id="path50"
         d="M 1.41,0 M 1.41,0 C 4.62,0 7.83,0 12.34,0 M 1.41,0 C 4.76,0 8.11,0 12.34,0 M 12.34,0 C 13.28,0 13.76,0.47 13.76,1.41 M 12.34,0 C 13.28,0 13.76,0.47 13.76,1.41 M 13.76,1.41 C 13.76,2.2 13.76,2.99 13.76,4.24 M 13.76,1.41 C 13.76,2.31 13.76,3.21 13.76,4.24 M 13.76,4.24 C 13.76,5.18 13.28,5.65 12.34,5.65 M 13.76,4.24 C 13.76,5.18 13.28,5.65 12.34,5.65 M 12.34,5.65 C 9.42,5.65 6.51,5.65 1.41,5.65 M 12.34,5.65 C 9.4,5.65 6.46,5.65 1.41,5.65 M 1.41,5.65 C 0.47,5.65 0,5.18 0,4.24 M 1.41,5.65 C 0.47,5.65 0,5.18 0,4.24 M 0,4.24 C 0,3.38 0,2.52 0,1.41 M 0,4.24 C 0,3.23 0,2.21 0,1.41 M 0,1.41 C 0,0.47 0.47,0 1.41,0 M 0,1.41 C 0,0.47 0.47,0 1.41,0"
         style="fill:none;stroke:#000000;stroke-width:2" />
    </g>
    <g
       id="g56"
       transform="matrix(5.3166016,0,0,5.3166016,-18.89311,-2.1505046)">
      <g
         id="text54"
         style="font-size:16px;font-family:'Virgil 3 YOFF';direction:ltr;text-anchor:middle;white-space:pre;fill:#000000"
         aria-label="?">
        <path
           id="path1216"
           style="font-size:16px;font-family:'Virgil 3 YOFF';direction:ltr;text-anchor:middle;white-space:pre;fill:#000000"
           d="M 12.096003,9.488 C 12.096003,10.144 13.040003,10.544 13.104003,10.592 13.344003,10.64 13.728003,10.56 13.920003,10.496 13.984003,10.432 14.288003,9.968 14.224003,9.888 14.224003,9.712 14.112003,9.568 14.112003,9.376 14.288003,8.72 15.168003,8.048 15.840003,7.568 15.920003,7.488 17.456003,6.128 17.456003,5.84 17.680003,5.248 17.536003,4.64 17.056003,4.224 16.160003,3.328 15.040003,3.088 13.904003,3.088 13.056003,3.088 12.192003,3.216 11.392003,3.312 10.208003,3.312 10.464003,4.096 10.464003,4.128 10.464003,4.688 10.704003,4.768 10.992003,4.832 H 11.696003 C 11.904003,4.832 13.008003,4.624 13.008003,4.624 H 14.320003 C 14.480003,4.624 15.184003,4.784 15.344003,4.832 15.600003,5.088 15.712003,5.312 15.648003,5.632 15.520003,5.808 14.800003,6.528 14.624003,6.656 14.608003,6.672 14.528003,6.736 14.432003,6.8 L 13.712003,7.216 C 13.616003,7.28 13.552003,7.328 13.520003,7.36 12.784003,7.904 12.112003,8.464 12.096003,9.488 Z M 13.616003,11.504 C 13.136003,11.712 12.752003,12.288 12.800003,12.736 V 12.928 C 13.008003,13.44 13.168003,13.952 13.696003,13.952 14.240003,14.16 14.672003,13.28 14.736003,12.816 14.912003,12.16 14.560003,11.664 13.920003,11.504 Z" />
      </g>
    </g>
  </g>
</svg>
