<?xml version="1.0" encoding="UTF-8" standalone="no"?>
<svg
   xmlns:dc="http://purl.org/dc/elements/1.1/"
   xmlns:cc="http://creativecommons.org/ns#"
   xmlns:rdf="http://www.w3.org/1999/02/22-rdf-syntax-ns#"
   xmlns:svg="http://www.w3.org/2000/svg"
   xmlns="http://www.w3.org/2000/svg"
   id="svg1578"
   version="1.1"
   viewBox="0 0 100 100"
   height="100"
   width="100">
  <defs
     id="defs1572" />
  <metadata
     id="metadata1575">
    <rdf:RDF>
      <cc:Work
         rdf:about="">
        <dc:format>image/svg+xml</dc:format>
        <dc:type
           rdf:resource="http://purl.org/dc/dcmitype/StillImage" />
        <dc:title></dc:title>
      </cc:Work>
    </rdf:RDF>
  </metadata>
  <g
     transform="translate(-5.5390738,11.028048)"
     id="layer1">
    <g
       id="g12"
       transform="matrix(2.1290806,0,0,2.1290806,15.118479,-6.3987556)"
       style="stroke-linecap:round">
      <path
         id="path10"
         d="M 9.49,0 M 9.49,0 C 14.68,0 19.87,0 28.48,0 M 9.49,0 C 14.11,0 18.73,0 28.48,0 M 28.48,0 C 34.81,0 37.97,3.16 37.97,9.49 M 28.48,0 C 34.81,0 37.97,3.16 37.97,9.49 M 37.97,9.49 C 37.97,14.42 37.97,19.35 37.97,33.13 M 37.97,9.49 C 37.97,18.55 37.97,27.6 37.97,33.13 M 37.97,33.13 C 37.97,39.46 34.81,42.62 28.48,42.62 M 37.97,33.13 C 37.97,39.46 34.81,42.62 28.48,42.62 M 28.48,42.62 C 22.07,42.62 15.65,42.62 9.49,42.62 M 28.48,42.62 C 24.64,42.62 20.8,42.62 9.49,42.62 M 9.49,42.62 C 3.16,42.62 0,39.46 0,33.13 M 9.49,42.62 C 3.16,42.62 0,39.46 0,33.13 M 0,33.13 C 0,27.86 0,22.59 0,9.49 M 0,33.13 C 0,26.3 0,19.48 0,9.49 M 0,9.49 C 0,3.16 3.16,0 9.49,0 M 0,9.49 C 0,3.16 3.16,0 9.49,0"
         style="fill:none;stroke:#000000;stroke-width:2" />
    </g>
    <g
       id="g16"
       transform="matrix(2.1290806,0,0,2.1290806,38.843249,-6.2078536)"
       style="stroke-linecap:round">
      <path
         id="path14"
         d="M 1.41,0 M 1.41,0 C 4.08,0 6.74,0 12.34,0 M 1.41,0 C 3.62,0 5.82,0 12.34,0 M 12.34,0 C 13.28,0 13.76,0.47 13.76,1.41 M 12.34,0 C 13.28,0 13.76,0.47 13.76,1.41 M 13.76,1.41 C 13.76,2.48 13.76,3.55 13.76,4.24 M 13.76,1.41 C 13.76,2.27 13.76,3.13 13.76,4.24 M 13.76,4.24 C 13.76,5.18 13.28,5.65 12.34,5.65 M 13.76,4.24 C 13.76,5.18 13.28,5.65 12.34,5.65 M 12.34,5.65 C 9.28,5.65 6.21,5.65 1.41,5.65 M 12.34,5.65 C 9.56,5.65 6.78,5.65 1.41,5.65 M 1.41,5.65 C 0.47,5.65 0,5.18 0,4.24 M 1.41,5.65 C 0.47,5.65 0,5.18 0,4.24 M 0,4.24 C 0,3.42 0,2.59 0,1.41 M 0,4.24 C 0,3.23 0,2.22 0,1.41 M 0,1.41 C 0,0.47 0.47,0 1.41,0 M 0,1.41 C 0,0.47 0.47,0 1.41,0"
         style="fill:none;stroke:#000000;stroke-width:2" />
    </g>
    <g
       transform="matrix(2.9530313,0,0,2.9530313,-807.83451,-53.487943)"
       id="g2047">
      <g
         style="stroke-linecap:round"
         id="g30">
        <g
           transform="rotate(24.079985,91.421693,709.74467)"
           id="g20">
          <path
             style="fill:none;stroke:#000000;stroke-width:2"
             d="M 0,0 C 1.19,0.72 6.9,1.92 7.14,4.32 7.37,6.71 2.36,12.7 1.41,14.37 M 0,0 C 1.19,0.72 6.9,1.92 7.14,4.32 7.37,6.71 2.36,12.7 1.41,14.37"
             id="path18" />
        </g>
        <g
           transform="rotate(24.079985,91.421693,709.74467)"
           id="g24">
          <path
             style="fill:none;stroke:#000000;stroke-width:2"
             d="M 2.88,8.78 C 2.43,10.46 1.99,12.15 1.41,14.37 M 2.88,8.78 C 2.45,10.41 2.02,12.04 1.41,14.37"
             id="path22" />
        </g>
        <g
           transform="rotate(24.079985,91.421693,709.74467)"
           id="g28">
          <path
             style="fill:none;stroke:#000000;stroke-width:2"
             d="M 6.13,11.03 C 4.71,12.04 3.29,13.04 1.41,14.37 M 6.13,11.03 C 4.75,12 3.38,12.98 1.41,14.37"
             id="path26" />
        </g>
      </g>
      <g
         style="stroke-linecap:round"
         id="g44">
        <g
           transform="rotate(-158.19207,147.51216,-8.5860521)"
           id="g34">
          <path
             style="fill:none;stroke:#000000;stroke-width:2"
             d="M 0,0 C 1.3,0.89 7.55,2.96 7.79,5.36 8.02,7.75 2.47,12.87 1.41,14.37 M 0,0 C 1.3,0.89 7.55,2.96 7.79,5.36 8.02,7.75 2.47,12.87 1.41,14.37"
             id="path32" />
        </g>
        <g
           transform="rotate(-158.19207,147.51216,-8.5860521)"
           id="g38">
          <path
             style="fill:none;stroke:#000000;stroke-width:2"
             d="M 3.41,9.23 C 2.74,10.95 2.07,12.68 1.41,14.37 M 3.41,9.23 C 2.85,10.66 2.29,12.1 1.41,14.37"
             id="path36" />
        </g>
        <g
           transform="rotate(-158.19207,147.51216,-8.5860521)"
           id="g42">
          <path
             style="fill:none;stroke:#000000;stroke-width:2"
             d="M 6.25,11.72 C 4.62,12.61 3,13.5 1.41,14.37 M 6.25,11.72 C 4.9,12.46 3.55,13.2 1.41,14.37"
             id="path40" />
        </g>
      </g>
    </g>
  </g>
</svg>
