<?xml version="1.0" encoding="UTF-8" standalone="no"?>
<svg
   xmlns:dc="http://purl.org/dc/elements/1.1/"
   xmlns:cc="http://creativecommons.org/ns#"
   xmlns:rdf="http://www.w3.org/1999/02/22-rdf-syntax-ns#"
   xmlns:svg="http://www.w3.org/2000/svg"
   xmlns="http://www.w3.org/2000/svg"
   id="svg1578"
   version="1.1"
   viewBox="0 0 100 100"
   height="100"
   width="100">
  <defs
     id="defs1572" />
  <metadata
     id="metadata1575">
    <rdf:RDF>
      <cc:Work
         rdf:about="">
        <dc:format>image/svg+xml</dc:format>
        <dc:type
           rdf:resource="http://purl.org/dc/dcmitype/StillImage" />
        <dc:title></dc:title>
      </cc:Work>
    </rdf:RDF>
  </metadata>
  <g
     transform="translate(-5.5390738,11.028048)"
     id="layer1">
    <path
       style="fill:none;stroke:#000000;stroke-width:3.51191115;stroke-linecap:round"
       d="M 38.857498,-6.7719155 M 38.857498,-6.7719155 C 51.236987,-6.7719155 63.634027,-6.7719155 72.220647,-6.7719155 M 38.857498,-6.7719155 C 49.867337,-6.7719155 60.877177,-6.7719155 72.220647,-6.7719155 M 72.220647,-6.7719155 C 83.335847,-6.7719155 88.902227,-1.2055363 88.902227,9.9096624 M 72.220647,-6.7719155 C 83.335847,-6.7719155 88.902227,-1.2055363 88.902227,9.9096624 M 88.902227,9.9096624 C 88.902227,23.026651 88.902227,36.161198 88.902227,51.385326 M 88.902227,9.9096624 C 88.902227,24.765047 88.902227,39.620431 88.902227,51.385326 M 88.902227,51.385326 C 88.902227,62.500525 83.335847,68.066905 72.220647,68.066905 M 88.902227,51.385326 C 88.902227,62.500525 83.335847,68.066905 72.220647,68.066905 M 72.220647,68.066905 C 62.036107,68.066905 51.834007,68.066905 38.857498,68.066905 M 72.220647,68.066905 C 61.667357,68.066905 51.096507,68.066905 38.857498,68.066905 M 38.857498,68.066905 C 27.742299,68.066905 22.17592,62.500525 22.17592,51.385326 M 38.857498,68.066905 C 27.742299,68.066905 22.17592,62.500525 22.17592,51.385326 M 22.17592,51.385326 C 22.17592,36.248996 22.17592,21.112659 22.17592,9.9096624 M 22.17592,51.385326 C 22.17592,42.359715 22.17592,33.31655 22.17592,9.9096624 M 22.17592,9.9096624 C 22.17592,-1.2055363 27.742299,-6.7719155 38.857498,-6.7719155 M 22.17592,9.9096624 C 22.17592,-1.2055363 27.742299,-6.7719155 38.857498,-6.7719155"
       id="path176" />
    <path
       style="fill:none;stroke:#000000;stroke-width:3.51191115;stroke-linecap:round"
       d="M 45.938157,-6.6144712 M 45.938157,-6.6144712 C 50.960197,-6.6144712 55.964667,-6.6144712 65.130757,-6.6144712 M 45.938157,-6.6144712 C 50.450967,-6.6144712 54.946217,-6.6144712 65.130757,-6.6144712 M 65.130757,-6.6144712 C 66.781347,-6.6144712 67.624207,-5.7891721 67.624207,-4.1385739 M 65.130757,-6.6144712 C 66.781347,-6.6144712 67.624207,-5.7891721 67.624207,-4.1385739 M 67.624207,-4.1385739 C 67.624207,-2.4704161 67.624207,-0.81981777 67.624207,0.83078053 M 67.624207,-4.1385739 C 67.624207,-3.1025601 67.624207,-2.0841058 67.624207,0.83078053 M 67.624207,0.83078053 C 67.624207,2.4813787 66.781347,3.3066774 65.130757,3.3066774 M 67.624207,0.83078053 C 67.624207,2.4813787 66.781347,3.3066774 65.130757,3.3066774 M 65.130757,3.3066774 C 59.213187,3.3066774 53.278057,3.3066774 45.938157,3.3066774 M 65.130757,3.3066774 C 58.809317,3.3066774 52.487877,3.3066774 45.938157,3.3066774 M 45.938157,3.3066774 C 44.287567,3.3066774 43.462267,2.4813787 43.462267,0.83078053 M 45.938157,3.3066774 C 44.287567,3.3066774 43.462267,2.4813787 43.462267,0.83078053 M 43.462267,0.83078053 C 43.462267,-0.60910307 43.462267,-2.0489867 43.462267,-4.1385739 M 43.462267,0.83078053 C 43.462267,-0.50374577 43.462267,-1.838272 43.462267,-4.1385739 M 43.462267,-4.1385739 C 43.462267,-5.7891721 44.287567,-6.6144712 45.938157,-6.6144712 M 43.462267,-4.1385739 C 43.462267,-5.7891721 44.287567,-6.6144712 45.938157,-6.6144712"
       id="path180" />
    <g
       transform="matrix(2.0882519,0,0,2.0882519,-212.48116,-163.22634)"
       id="g1830">
      <path
         d="M 117.62972,96.013781 C 118.38496,96.224257 119.44972,96.558543 120.05639,96.954733 120.13069,97.029023 120.77449,97.511876 120.83639,97.573781 120.92309,97.623301 121.04687,97.660451 121.1583,97.660451 121.36877,97.660451 121.56687,97.573781 121.61639,97.350927 121.75258,97.078546 121.71549,96.843308 121.61639,96.558546 121.33163,95.753781 120.20496,95.568066 119.51163,95.159495 118.54592,94.738543 117.49353,94.478543 116.52782,94.05759 116.41639,93.9214 116.24306,93.760447 116.29258,93.599495 116.24308,93.364257 116.45353,93.079495 116.52782,92.8814 117.45639,91.903304 118.80592,89.996638 119.89544,89.129971 120.16782,88.795685 120.51449,88.523304 120.52687,88.114733 120.46497,87.916638 120.36592,87.706161 120.13068,87.792828 119.3383,88.015685 119.15258,88.275685 118.57068,88.969019 117.49353,90.15759 116.50306,91.469971 115.36401,92.571876 114.99258,93.005209 114.41068,93.450924 114.49734,94.05759 114.54684,94.466162 114.70782,94.763305 115.04211,94.998543 115.72306,95.369971 116.87449,95.716638 117.62972,96.013781 Z"
         style="font-size:12.38095284px;font-family:'Virgil 3 YOFF';direction:ltr;text-anchor:start;white-space:pre;fill:#000000"
         id="path1252" />
      <path
         d="M 125.78972,97.8214 C 125.72782,97.945209 125.70302,98.007114 125.71542,98.130924 125.83923,98.279495 125.9878,98.514733 126.16114,98.465209 126.21064,98.452829 126.26014,98.440449 126.30971,98.390929 126.644,98.229971 126.73066,97.883305 127.04019,97.536638 128.87257,95.2214 130.01161,93.228066 131.29923,90.826162 131.98019,90.0214 132.26495,88.944257 132.64876,89.129971 132.92114,88.9814 133.13161,88.127114 132.98304,87.619495 132.82209,87.359495 132.57447,87.186161 132.30209,87.210923 132.11638,87.235683 131.91828,87.334733 131.72019,87.55759 131.69539,87.58235 131.65829,87.718542 131.62109,87.854733 L 131.55919,88.226161 C 131.37347,88.498542 131.17537,89.018542 131.13823,89.105209 130.43252,90.590924 129.38014,92.175685 128.56299,93.748066 127.57252,94.986162 126.74299,96.471876 125.78966,97.8214 Z"
         style="font-size:12.38095284px;font-family:'Virgil 3 YOFF';direction:ltr;text-anchor:start;white-space:pre;fill:#000000"
         id="path1254" />
      <path
         d="M 137.25541,96.806162 C 137.3916,97.0414 137.44112,97.313781 137.81255,97.43759 137.94874,97.48711 138.15922,97.33854 138.27065,97.276638 138.33255,97.239498 138.84017,96.719495 138.90208,96.65759 140.14017,95.716638 140.26398,95.431876 141.72493,94.614733 L 141.79923,94.540443 C 141.99732,94.131872 142.25732,93.884253 142.19542,93.525205 142.14592,93.364253 142.02209,93.166158 141.56399,93.054729 141.3659,92.856634 141.03161,92.831872 140.85828,92.658539 139.6078,91.556634 138.25828,90.628062 136.97066,89.835681 H 136.83447 C 136.84687,89.835681 136.58685,89.872821 136.47542,90.0833 V 90.15759 C 136.71066,91.110924 137.14399,91.296638 137.49066,91.643305 137.58976,91.742355 138.32018,92.188067 138.35732,92.188067 139.16209,92.906162 139.84304,93.166162 140.31352,93.995686 140.30112,94.268067 138.8278,94.973781 138.35732,95.555686 137.99828,95.828067 137.34209,95.902352 137.34209,96.2614 137.30499,96.34807 137.24299,96.632828 137.25539,96.744257 Z"
         style="font-size:12.38095284px;font-family:'Virgil 3 YOFF';direction:ltr;text-anchor:start;white-space:pre;fill:#000000"
         id="path1256" />
    </g>
    <ellipse
       ry="17.226866"
       rx="16.145964"
       cy="69.225922"
       cx="55.539055"
       id="path1227-9"
       style="opacity:1;fill:#000000;fill-opacity:0.93023257;stroke:#ca0000;stroke-width:0.03833305;stroke-miterlimit:4;stroke-dasharray:none;stroke-opacity:1" />
    <text
       id="text1231-7"
       y="82.147209"
       x="51.281685"
       style="font-style:normal;font-variant:normal;font-weight:normal;font-stretch:normal;font-size:40.56914902px;line-height:1.25;font-family:'Virgil 3 YOFF';-inkscape-font-specification:'Virgil 3 YOFF, Normal';font-variant-ligatures:normal;font-variant-caps:normal;font-variant-numeric:normal;text-align:start;letter-spacing:0px;word-spacing:0px;writing-mode:lr-tb;text-anchor:start;fill:#ffffff;fill-opacity:1;stroke:none;stroke-width:1.0142287"
       xml:space="preserve"><tspan
         style="stroke-width:1.0142287"
         y="82.147209"
         x="51.281685"
         id="tspan1229-9">1</tspan></text>
  </g>
</svg>
