<?xml version="1.0" encoding="UTF-8" standalone="no"?>
<svg
   xmlns:dc="http://purl.org/dc/elements/1.1/"
   xmlns:cc="http://creativecommons.org/ns#"
   xmlns:rdf="http://www.w3.org/1999/02/22-rdf-syntax-ns#"
   xmlns:svg="http://www.w3.org/2000/svg"
   xmlns="http://www.w3.org/2000/svg"
   id="svg1578"
   version="1.1"
   viewBox="0 0 100 100"
   height="100"
   width="100">
  <defs
     id="defs1572" />
  <metadata
     id="metadata1575">
    <rdf:RDF>
      <cc:Work
         rdf:about="">
        <dc:format>image/svg+xml</dc:format>
        <dc:type
           rdf:resource="http://purl.org/dc/dcmitype/StillImage" />
        <dc:title></dc:title>
      </cc:Work>
    </rdf:RDF>
  </metadata>
  <g
     transform="translate(-5.5390738,11.028048)"
     id="layer1">
    <path
       style="fill:none;stroke:#000000;stroke-width:3.51191092;stroke-linecap:round"
       d="M 38.857497,-6.7719177 M 38.857497,-6.7719177 C 50.359006,-6.7719177 61.878074,-6.7719177 72.220651,-6.7719177 M 38.857497,-6.7719177 C 47.619715,-6.7719177 56.364373,-6.7719177 72.220651,-6.7719177 M 72.220651,-6.7719177 C 83.33585,-6.7719177 88.902228,-1.2055384 88.902228,9.9096598 M 72.220651,-6.7719177 C 83.33585,-6.7719177 88.902228,-1.2055384 88.902228,9.9096598 M 88.902228,9.9096598 C 88.902228,22.90373 88.902228,35.880241 88.902228,51.385321 M 88.902228,9.9096598 C 88.902228,23.430517 88.902228,36.951374 88.902228,51.385321 M 88.902228,51.385321 C 88.902228,62.500519 83.33585,68.066898 72.220651,68.066898 M 88.902228,51.385321 C 88.902228,62.500519 83.33585,68.066898 72.220651,68.066898 M 72.220651,68.066898 C 59.103664,68.066898 45.986676,68.066898 38.857497,68.066898 M 72.220651,68.066898 C 63.423314,68.066898 54.643537,68.066898 38.857497,68.066898 M 38.857497,68.066898 C 27.742299,68.066898 22.17592,62.500519 22.17592,51.385321 M 38.857497,68.066898 C 27.742299,68.066898 22.17592,62.500519 22.17592,51.385321 M 22.17592,51.385321 C 22.17592,42.148995 22.17592,32.912676 22.17592,9.9096598 M 22.17592,51.385321 C 22.17592,42.693341 22.17592,34.001369 22.17592,9.9096598 M 22.17592,9.9096598 C 22.17592,-1.2055384 27.742299,-6.7719177 38.857497,-6.7719177 M 22.17592,9.9096598 C 22.17592,-1.2055384 27.742299,-6.7719177 38.857497,-6.7719177"
       id="path146" />
    <path
       style="fill:none;stroke:#000000;stroke-width:3.51191092;stroke-linecap:round"
       d="M 45.938151,-6.6144727 M 45.938151,-6.6144727 C 50.802147,-6.6144727 55.666144,-6.6144727 65.130744,-6.6144727 M 45.938151,-6.6144727 C 49.90661,-6.6144727 53.892629,-6.6144727 65.130744,-6.6144727 M 65.130744,-6.6144727 C 66.781342,-6.6144727 67.624201,-5.7891737 67.624201,-4.1385757 M 65.130744,-6.6144727 C 66.781342,-6.6144727 67.624201,-5.7891737 67.624201,-4.1385757 M 67.624201,-4.1385757 C 67.624201,-2.7338117 67.624201,-1.3290471 67.624201,0.8307782 M 67.624201,-4.1385757 C 67.624201,-2.5582157 67.624201,-0.9954155 67.624201,0.8307782 M 67.624201,0.8307782 C 67.624201,2.4813763 66.781342,3.3066754 65.130744,3.3066754 M 67.624201,0.8307782 C 67.624201,2.4813763 66.781342,3.3066754 65.130744,3.3066754 M 65.130744,3.3066754 C 59.002459,3.3066754 52.874175,3.3066754 45.938151,3.3066754 M 65.130744,3.3066754 C 58.458113,3.3066754 51.785482,3.3066754 45.938151,3.3066754 M 45.938151,3.3066754 C 44.287552,3.3066754 43.462253,2.4813763 43.462253,0.8307782 M 45.938151,3.3066754 C 44.287552,3.3066754 43.462253,2.4813763 43.462253,0.8307782 M 43.462253,0.8307782 C 43.462253,-1.0480942 43.462253,-2.9269667 43.462253,-4.1385757 M 43.462253,0.8307782 C 43.462253,-1.1183324 43.462253,-3.0674427 43.462253,-4.1385757 M 43.462253,-4.1385757 C 43.462253,-5.7891737 44.287552,-6.6144727 45.938151,-6.6144727 M 43.462253,-4.1385757 C 43.462253,-5.7891737 44.287552,-6.6144727 45.938151,-6.6144727"
       id="path150" />
    <g
       transform="matrix(3.4330979,0,0,3.4330979,-44.101789,-291.16184)"
       id="g1810">
      <path
         d="M 30.376009,97.474733 C 30.648009,98.082733 30.632009,98.834733 31.384009,99.218733 31.688009,99.506733 31.976009,99.458733 32.312009,99.442733 32.344009,99.298733 32.680009,99.058733 32.552009,98.850733 32.520009,98.658733 32.056009,98.034733 31.976009,97.794733 31.480009,96.370733 31.064009,94.962733 30.952009,93.506733 30.696009,92.306733 30.872009,91.250733 30.792009,90.098733 30.680009,89.906733 30.760009,89.122733 30.424009,88.898733 30.312009,88.770733 29.928009,88.466733 29.880009,88.450733 29.864009,88.450733 29.240009,88.322733 29.096009,88.338733 28.968009,88.530733 28.632009,88.850733 28.696009,89.106733 28.632009,89.954733 28.504009,90.706733 28.168009,91.426733 27.880009,91.826733 27.704009,92.514733 27.384009,92.738733 27.336009,92.722733 27.256009,92.658733 27.256009,92.642733 L 26.248009,89.442733 C 26.248009,89.426733 26.056009,89.122733 26.008009,89.010733 25.752009,88.578733 25.544009,88.306733 25.064009,88.114733 24.920009,88.050733 24.824009,88.018733 24.728009,88.018733 24.552009,88.018733 24.456009,88.146733 24.312009,88.338733 23.976009,89.218733 23.944009,90.658733 23.720009,91.522733 23.464009,92.850733 22.840009,94.098733 22.344009,95.282733 22.120009,95.666733 21.656009,96.354733 21.320009,96.578733 21.256009,96.786733 21.240009,97.106733 21.352009,97.362733 21.496009,97.650733 21.800009,98.178733 22.040009,98.258733 22.392009,98.338733 22.696009,98.018733 22.952009,97.794733 23.560009,96.658733 24.168009,95.314733 24.632009,94.066733 24.840009,93.506733 25.048009,92.642733 25.304009,92.178733 L 25.464009,92.306733 C 25.560009,92.562733 26.008009,93.906733 26.168009,94.162733 26.424009,94.642733 26.872009,95.314733 27.336009,95.618733 27.832009,95.570733 28.088009,95.410733 28.344009,95.058733 28.648009,94.418733 28.936009,93.490733 29.304009,93.074733 29.320009,93.058733 29.400009,93.106733 29.416009,93.106733 29.656009,93.714733 29.576009,94.450733 29.720009,95.058733 30.040009,95.890733 30.040009,96.610733 30.376009,97.474733 Z"
         style="font-size:16px;font-family:'Virgil 3 YOFF';direction:ltr;text-anchor:middle;white-space:pre;fill:#000000"
         id="path1246" />
      <path
         style="fill:none;stroke:#000000;stroke-width:1;stroke-linecap:round"
         d="M 34.594853,88.651633 C 34.594853,90.291633 34.594853,96.851633 34.594853,98.491633 M 34.594853,88.651633 C 34.594853,90.291633 34.594853,96.851633 34.594853,98.491633"
         id="path158" />
      <path
         style="fill:none;stroke:#000000;stroke-width:1;stroke-linecap:round"
         d="M 32.914853,93.871633 C 33.444853,95.321633 33.964853,96.771633 34.594853,98.491633 M 32.914853,93.871633 C 33.544853,95.601633 34.174853,97.341633 34.594853,98.491633"
         id="path162" />
      <path
         style="fill:none;stroke:#000000;stroke-width:1;stroke-linecap:round"
         d="M 36.274853,93.871633 C 35.744853,95.321633 35.224853,96.771633 34.594853,98.491633 M 36.274853,93.871633 C 35.644853,95.601633 35.014853,97.341633 34.594853,98.491633"
         id="path166" />
    </g>
    <ellipse
       ry="17.226866"
       rx="16.145964"
       cy="69.225922"
       cx="55.539074"
       id="path1227-7"
       style="opacity:1;fill:#000000;fill-opacity:0.93023257;stroke:#ca0000;stroke-width:0.03833305;stroke-miterlimit:4;stroke-dasharray:none;stroke-opacity:1" />
    <text
       id="text1231-1"
       y="82.147202"
       x="51.281685"
       style="font-style:normal;font-variant:normal;font-weight:normal;font-stretch:normal;font-size:40.5691452px;line-height:1.25;font-family:'Virgil 3 YOFF';-inkscape-font-specification:'Virgil 3 YOFF, Normal';font-variant-ligatures:normal;font-variant-caps:normal;font-variant-numeric:normal;text-align:start;letter-spacing:0px;word-spacing:0px;writing-mode:lr-tb;text-anchor:start;fill:#ffffff;fill-opacity:1;stroke:none;stroke-width:1.0142287"
       xml:space="preserve"><tspan
         style="stroke-width:1.0142287"
         y="82.147202"
         x="51.281685"
         id="tspan1229-2">1</tspan></text>
  </g>
</svg>
