<?xml version="1.0" encoding="UTF-8" standalone="no"?>
<svg
   xmlns:dc="http://purl.org/dc/elements/1.1/"
   xmlns:cc="http://creativecommons.org/ns#"
   xmlns:rdf="http://www.w3.org/1999/02/22-rdf-syntax-ns#"
   xmlns:svg="http://www.w3.org/2000/svg"
   xmlns="http://www.w3.org/2000/svg"
   id="svg1578"
   version="1.1"
   viewBox="0 0 100 100"
   height="100"
   width="100">
  <defs
     id="defs1572" />
  <metadata
     id="metadata1575">
    <rdf:RDF>
      <cc:Work
         rdf:about="">
        <dc:format>image/svg+xml</dc:format>
        <dc:type
           rdf:resource="http://purl.org/dc/dcmitype/StillImage" />
        <dc:title></dc:title>
      </cc:Work>
    </rdf:RDF>
  </metadata>
  <g
     transform="translate(-5.5390738,11.028048)"
     id="layer1">
    <g
       transform="matrix(2.1492696,0,0,2.1492696,5.8726092,-7.2164116)"
       aria-label="&gt;..."
       style="font-size:36px;font-family:'Virgil 3 YOFF';direction:ltr;text-anchor:start;white-space:pre;fill:#000000"
       id="text6">
      <path
         d="M 3.276,29.876 C 3.672,30.56 3.816,31.352 4.896,31.712 5.292,31.856 5.904,31.424 6.228,31.244 6.408,31.136 7.884,29.624 8.064,29.444 11.664,26.708 12.024,25.88 16.272,23.504 L 16.488,23.288 C 17.064,22.1 17.82,21.38 17.64,20.336 17.496,19.868 17.136,19.292 15.804,18.968 15.228,18.392 14.256,18.32 13.752,17.816 10.116,14.612 6.192,11.912 2.448,9.608 H 2.052 C 2.088,9.608 1.332,9.716 1.008,10.328 V 10.544 C 1.692,13.316 2.952,13.856 3.96,14.864 4.248,15.152 6.372,16.448 6.48,16.448 8.82,18.536 10.8,19.292 12.168,21.704 12.132,22.496 7.848,24.548 6.48,26.24 5.436,27.032 3.528,27.248 3.528,28.292 3.42,28.544 3.24,29.372 3.276,29.696 Z"
         style="font-size:36px;font-family:'Virgil 3 YOFF';direction:ltr;text-anchor:start;white-space:pre;fill:#000000"
         id="path1207" />
      <path
         d="M 19.943953,31.1 C 19.871953,31.856 19.979953,32.468 20.663953,32.864 21.275953,33.224 21.779953,33.404 22.499953,33.368 23.399953,33.368 23.723953,33.044 24.299953,32.648 24.947953,32.108 25.631953,31.244 25.451953,30.344 25.379953,29.408 25.055953,29.156 24.767953,28.364 24.227953,27.536 23.147953,27.608 22.247953,27.68 21.635953,28.076 20.663953,28.76 20.195953,29.264 19.907953,29.912 19.979953,30.236 19.943953,31.1 Z"
         style="font-size:36px;font-family:'Virgil 3 YOFF';direction:ltr;text-anchor:start;white-space:pre;fill:#000000"
         id="path1209" />
      <path
         d="M 29.807891,31.1 C 29.735891,31.856 29.843891,32.468 30.527891,32.864 31.139891,33.224 31.643891,33.404 32.363891,33.368 33.263891,33.368 33.587891,33.044 34.163891,32.648 34.811891,32.108 35.495891,31.244 35.315891,30.344 35.243891,29.408 34.919891,29.156 34.631891,28.364 34.091891,27.536 33.011891,27.608 32.111891,27.68 31.499891,28.076 30.527891,28.76 30.059891,29.264 29.771891,29.912 29.843891,30.236 29.807891,31.1 Z"
         style="font-size:36px;font-family:'Virgil 3 YOFF';direction:ltr;text-anchor:start;white-space:pre;fill:#000000"
         id="path1211" />
      <path
         d="M 39.671828,31.1 C 39.599828,31.856 39.707828,32.468 40.391828,32.864 41.003828,33.224 41.507828,33.404 42.227828,33.368 43.127828,33.368 43.451828,33.044 44.027828,32.648 44.675828,32.108 45.359828,31.244 45.179828,30.344 45.107828,29.408 44.783828,29.156 44.495828,28.364 43.955828,27.536 42.875828,27.608 41.975828,27.68 41.363828,28.076 40.391828,28.76 39.923828,29.264 39.635828,29.912 39.707828,30.236 39.671828,31.1 Z"
         style="font-size:36px;font-family:'Virgil 3 YOFF';direction:ltr;text-anchor:start;white-space:pre;fill:#000000"
         id="path1213" />
    </g>
  </g>
</svg>
