<?xml version="1.0" encoding="UTF-8" standalone="no"?>
<svg
   xmlns:dc="http://purl.org/dc/elements/1.1/"
   xmlns:cc="http://creativecommons.org/ns#"
   xmlns:rdf="http://www.w3.org/1999/02/22-rdf-syntax-ns#"
   xmlns:svg="http://www.w3.org/2000/svg"
   xmlns="http://www.w3.org/2000/svg"
   id="svg1578"
   version="1.1"
   viewBox="0 0 100 100"
   height="100"
   width="100">
  <defs
     id="defs1572" />
  <metadata
     id="metadata1575">
    <rdf:RDF>
      <cc:Work
         rdf:about="">
        <dc:format>image/svg+xml</dc:format>
        <dc:type
           rdf:resource="http://purl.org/dc/dcmitype/StillImage" />
        <dc:title></dc:title>
      </cc:Work>
    </rdf:RDF>
  </metadata>
  <g
     transform="translate(-5.5390738,11.028048)"
     id="layer1">
    <path
       style="fill:none;stroke:#000000;stroke-width:3.45544028;stroke-linecap:round"
       d="M 39.125733,-6.80016 M 39.125733,-6.80016 C 49.163787,-6.80016 59.219119,-6.80016 71.952416,-6.80016 M 39.125733,-6.80016 C 46.606762,-6.80016 54.105067,-6.80016 71.952416,-6.80016 M 71.952416,-6.80016 C 82.888885,-6.80016 88.365758,-1.3232872 88.365758,9.6131818 M 71.952416,-6.80016 C 82.888885,-6.80016 88.365758,-1.3232872 88.365758,9.6131818 M 88.365758,9.6131818 C 88.365758,25.093555 88.365758,40.573927 88.365758,50.421932 M 88.365758,9.6131818 C 88.365758,25.300881 88.365758,40.971303 88.365758,50.421932 M 88.365758,50.421932 C 88.365758,61.358401 82.888885,66.835274 71.952416,66.835274 M 88.365758,50.421932 C 88.365758,61.358401 82.888885,66.835274 71.952416,66.835274 M 71.952416,66.835274 C 62.640005,66.835274 53.327593,66.835274 39.125733,66.835274 M 71.952416,66.835274 C 62.622727,66.835274 53.275761,66.835274 39.125733,66.835274 M 39.125733,66.835274 C 28.189263,66.835274 22.71239,61.358401 22.71239,50.421932 M 39.125733,66.835274 C 28.189263,66.835274 22.71239,61.358401 22.71239,50.421932 M 22.71239,50.421932 C 22.71239,39.831008 22.71239,29.25736 22.71239,9.6131818 M 22.71239,50.421932 C 22.71239,38.898039 22.71239,27.356868 22.71239,9.6131818 M 22.71239,9.6131818 C 22.71239,-1.3232872 28.189263,-6.80016 39.125733,-6.80016 M 22.71239,9.6131818 C 22.71239,-1.3232872 28.189263,-6.80016 39.125733,-6.80016"
       id="path288" />
    <path
       style="fill:none;stroke:#000000;stroke-width:3.45544028;stroke-linecap:round"
       d="M 46.092532,-6.6452526 M 46.092532,-6.6452526 C 49.997179,-6.6452526 53.901827,-6.6452526 64.976513,-6.6452526 M 46.092532,-6.6452526 C 52.554205,-6.6452526 59.015878,-6.6452526 64.976513,-6.6452526 M 64.976513,-6.6452526 C 66.60057,-6.6452526 67.429876,-5.8332241 67.429876,-4.2091671 M 64.976513,-6.6452526 C 66.60057,-6.6452526 67.429876,-5.8332241 67.429876,-4.2091671 M 67.429876,-4.2091671 C 67.429876,-3.2070894 67.429876,-2.2050117 67.429876,0.68028078 M 67.429876,-4.2091671 C 67.429876,-3.0515946 67.429876,-1.8940221 67.429876,0.68028078 M 67.429876,0.68028078 C 67.429876,2.3043378 66.60057,3.1163668 64.976513,3.1163668 M 67.429876,0.68028078 C 67.429876,2.3043378 66.60057,3.1163668 64.976513,3.1163668 M 64.976513,3.1163668 C 58.497562,3.1163668 52.001335,3.1163668 46.092532,3.1163668 M 64.976513,3.1163668 C 60.208005,3.1163668 55.439498,3.1163668 46.092532,3.1163668 M 46.092532,3.1163668 C 44.468475,3.1163668 43.656446,2.3043378 43.656446,0.68028078 M 46.092532,3.1163668 C 44.468475,3.1163668 43.656446,2.3043378 43.656446,0.68028078 M 43.656446,0.68028078 C 43.656446,-1.2547652 43.656446,-3.1898122 43.656446,-4.2091671 M 43.656446,0.68028078 C 43.656446,-0.82283522 43.656446,-2.3259522 43.656446,-4.2091671 M 43.656446,-4.2091671 C 43.656446,-5.8332241 44.468475,-6.6452526 46.092532,-6.6452526 M 43.656446,-4.2091671 C 43.656446,-5.8332241 44.468475,-6.6452526 46.092532,-6.6452526"
       id="path292" />
    <g
       transform="matrix(1.7277202,0,0,1.7277202,-98.182944,-350.06968)"
       id="g1798">
      <ellipse
         style="opacity:1;fill:#000000;fill-opacity:0.93023257;stroke:#ca0000;stroke-width:0.02183031;stroke-miterlimit:4;stroke-dasharray:none;stroke-opacity:1"
         id="path1227-17"
         cx="78.973907"
         cy="242.84772"
         rx="9.194973"
         ry="9.8105364" />
      <text
         xml:space="preserve"
         style="font-style:normal;font-variant:normal;font-weight:normal;font-stretch:normal;font-size:23.10374451px;line-height:1.25;font-family:'Virgil 3 YOFF';-inkscape-font-specification:'Virgil 3 YOFF, Normal';font-variant-ligatures:normal;font-variant-caps:normal;font-variant-numeric:normal;text-align:start;letter-spacing:0px;word-spacing:0px;writing-mode:lr-tb;text-anchor:start;fill:#ffffff;fill-opacity:1;stroke:none;stroke-width:0.57759362"
         x="76.54937"
         y="250.20627"
         id="text1231-0"><tspan
           id="tspan1229-4"
           x="76.54937"
           y="250.20627"
           style="stroke-width:0.57759362">1</tspan></text>
    </g>
    <g
       id="g1623-5-3"
       transform="matrix(1.7277202,0,0,1.7277202,18.623699,-239.40028)">
      <ellipse
         style="opacity:1;fill:#000000;fill-opacity:0.93023257;stroke:#ca0000;stroke-width:0.02183031;stroke-miterlimit:4;stroke-dasharray:none;stroke-opacity:1"
         id="path1227-1-8-4-7"
         cx="30.143604"
         cy="178.79256"
         rx="9.194973"
         ry="9.8105364" />
      <text
         xml:space="preserve"
         style="font-style:normal;font-variant:normal;font-weight:normal;font-stretch:normal;font-size:16.36215401px;line-height:1.25;font-family:'Virgil 3 YOFF';-inkscape-font-specification:'Virgil 3 YOFF, Normal';font-variant-ligatures:normal;font-variant-caps:normal;font-variant-numeric:normal;text-align:start;letter-spacing:0px;word-spacing:0px;writing-mode:lr-tb;text-anchor:start;fill:#ffffff;fill-opacity:1;stroke:none;stroke-width:0.40905386"
         x="25.899658"
         y="183.94006"
         id="text1231-75-5-9-6"><tspan
           id="tspan1229-1-3-8-1"
           x="25.899658"
           y="183.94006"
           style="stroke-width:0.40905386">&gt;</tspan></text>
    </g>
    <g
       transform="matrix(2.6566833,0,0,2.6566833,27.918401,-7.3704804)"
       aria-label="abc"
       style="font-size:12.38095284px;font-family:'Virgil 3 YOFF';direction:ltr;text-anchor:start;white-space:pre;fill:#000000"
       id="text138-1">
      <path
         d="M 5.0514288,9.6933334 C 5.5342859,10.213333 6.0171431,10.894286 6.5371431,11.34 L 6.5866671,11.36476 C 6.9333338,11.550474 7.1066671,11.723808 7.4780957,11.637141 7.6638098,11.587619 7.9114289,11.500952 8.0228574,11.34 8.0476193,11.253333 8.134286,11.104762 8.1095241,11.018095 8.0723812,10.980952 7.9857146,10.881905 7.9485717,10.869524 7.6761908,10.832381 7.5523812,10.621905 7.2428574,10.399048 7.1438098,10.275238 6.7104764,9.9657143 6.6114288,9.8419048 6.2400002,9.2352381 5.8561907,8.4923809 5.521905,7.8114285 5.4228573,7.6628571 5.2247621,7.5761904 5.0514288,7.5019047 5.0142859,7.4647618 4.9028573,7.3780952 4.8904764,7.3409523 4.989524,7.1057142 4.6428573,7.0438095 4.5066668,6.9447618 4.1352382,6.9076188 3.7266668,6.8457138 3.3304763,6.8457138 2.8228572,6.8457138 2.3276191,6.9323808 1.9190477,7.2666662 1.2257143,7.848571 0.30952382,8.5542853 0.27238096,9.5323806 0.13619048,10.089524 0.43333335,10.535238 0.74285717,11.018095 1.0647619,11.401905 1.6714286,11.624762 2.1790477,11.562857 3.2685715,11.575237 4.1352382,10.745714 4.8161907,10.002857 4.8657147,9.916191 4.9647621,9.7552377 5.0514288,9.6933334 Z M 1.4485715,10.077143 C 1.312381,9.8295238 1.1885715,9.532381 1.3742858,9.2971429 1.7952382,8.7028571 2.3028572,7.9847619 3.0085715,7.8857142 3.5038097,7.7742857 3.949524,7.8238095 4.4323811,7.7123809 4.4447621,7.8733333 4.3580954,8.207619 4.3457144,8.3561905 4.2961906,8.7771428 4.0361906,9.2104762 3.8009525,9.532381 3.4542858,9.9161905 3.2561906,10.101905 2.6990477,10.312381 2.5133334,10.361901 2.3152382,10.411431 2.1171429,10.411431 1.8571429,10.411431 1.6095239,10.324761 1.4485715,10.077145 Z"
         style="font-size:12.38095284px;font-family:'Virgil 3 YOFF';direction:ltr;text-anchor:start;white-space:pre;fill:#000000"
         id="path1236-7" />
      <path
         d="M 8.5552357,12.828351 C 8.5428547,13.385494 8.5428547,14.078827 8.5552357,14.63597 8.6295217,15.354065 9.013331,15.997874 9.6076167,16.369303 10.16476,16.691208 10.573331,16.876922 11.179998,16.827398 11.947617,16.839778 12.702855,16.629303 13.334284,16.195969 13.792379,15.775017 14.312379,15.316922 14.213331,14.660732 14.262851,14.078827 13.80476,13.298827 13.247617,13.026446 12.715236,12.778827 12.195236,12.692161 11.638093,12.692161 11.241903,12.692161 10.845712,12.741681 10.412379,12.778831 10.399999,12.778831 10.362859,12.778831 10.30095,12.791211 L 9.9047596,12.865501 C 9.8428546,12.865501 9.8057116,12.877881 9.793331,12.877881 9.719045,12.308357 9.793331,11.144548 9.892379,10.327406 9.941902,9.4731135 10.115236,8.6683521 10.127617,7.8140663 10.028567,7.6035901 9.805712,7.4054949 9.5828548,7.4054949 9.4961878,7.4054949 9.4095215,7.4426379 9.3352358,7.5045429 9.2238072,7.628352 9.0752358,7.7273997 9.025712,7.900733 9.013331,9.2254945 8.8028548,10.649304 8.7161881,11.974066 8.6914261,12.172161 8.6047596,12.580733 8.5552357,12.828351 Z M 9.8799977,14.536922 C 9.8304737,14.301684 9.9419027,14.227398 10.127617,14.078827 10.499045,13.85597 11.142855,13.633113 11.699998,13.633113 11.86095,13.633113 12.021903,13.657873 12.158093,13.695013 12.554284,13.818823 13.086664,14.31406 12.938093,14.784537 12.814284,15.341679 12.232379,15.552155 11.761903,15.651202 11.378093,15.688342 10.833331,15.651202 10.511426,15.576922 10.263807,15.341679 9.7809501,14.95787 9.8799977,14.536917 Z"
         style="font-size:12.38095284px;font-family:'Virgil 3 YOFF';direction:ltr;text-anchor:start;white-space:pre;fill:#000000"
         id="path1238-7" />
      <path
         d="M 14.745705,18.166518 C 14.696185,18.649375 14.770465,19.194137 15.055228,19.577946 15.488562,20.135089 16.181895,20.518899 16.862848,20.741756 17.469514,20.92747 18.051419,21.014137 18.670467,21.125565 19.116181,21.249375 19.462848,21.336042 19.920943,21.286518 20.156181,21.212228 20.490467,20.976994 20.552371,20.741756 20.577131,20.630327 20.416181,20.370327 20.317133,20.283661 L 18.819038,19.961756 C 18.187609,19.850327 17.531419,19.75128 16.924752,19.516042 16.590467,19.392232 16.318086,19.156994 16.082847,18.872233 15.785705,18.723661 16.008567,18.166518 15.996177,18.005566 16.367605,17.485566 16.763796,16.916042 17.407605,16.75509 17.717129,16.74271 18.001891,16.69319 18.286653,16.8789 18.422844,16.95319 18.608558,17.448423 18.670463,17.609376 18.769513,17.881756 19.079034,17.757947 19.28951,17.770328 19.438082,17.757948 19.54951,17.572233 19.611415,17.460804 19.636185,17.064614 19.623795,16.6189 19.376181,16.284614 19.017133,15.925567 18.596181,15.467471 18.039038,15.492233 17.234276,15.343662 16.392371,15.739852 15.847609,16.3589 15.2038,16.903662 14.869514,17.361757 14.745705,18.166518 Z"
         style="font-size:12.38095284px;font-family:'Virgil 3 YOFF';direction:ltr;text-anchor:start;white-space:pre;fill:#000000"
         id="path1240-9" />
    </g>
  </g>
</svg>
